<?xml version="1.0" encoding="UTF-8" standalone="no"?>
<!--?xml version="1.0" encoding="UTF-8"?-->

<svg
   viewBox="0 0 850 1100"
   role="img"
   aria-labelledby="t d"
   version="1.1"
   id="svg17215"
   sodipodi:docname="cover_back.svg"
   inkscape:version="1.1.2 (b8e25be833, 2022-02-05)"
   inkscape:export-filename="C:\Users\Nolan Mitchell\Documents\GitHub\MTH091\cover4.png"
   inkscape:export-xdpi="299.99713"
   inkscape:export-ydpi="299.99713"
   xmlns:inkscape="http://www.inkscape.org/namespaces/inkscape"
   xmlns:sodipodi="http://sodipodi.sourceforge.net/DTD/sodipodi-0.dtd"
   xmlns="http://www.w3.org/2000/svg"
   xmlns:svg="http://www.w3.org/2000/svg"
   xmlns:rdf="http://www.w3.org/1999/02/22-rdf-syntax-ns#"
   xmlns:cc="http://creativecommons.org/ns#"
   xmlns:dc="http://purl.org/dc/elements/1.1/">
  <defs
     id="defs17219" />
  <sodipodi:namedview
     id="namedview17217"
     pagecolor="#ffffff"
     bordercolor="#666666"
     borderopacity="1.0"
     inkscape:pageshadow="2"
     inkscape:pageopacity="0.0"
     inkscape:pagecheckerboard="0"
     showgrid="false"
     inkscape:zoom="0.37454546"
     inkscape:cx="-116.14078"
     inkscape:cy="369.78155"
     inkscape:window-width="1920"
     inkscape:window-height="991"
     inkscape:window-x="-9"
     inkscape:window-y="-9"
     inkscape:window-maximized="1"
     inkscape:current-layer="svg17215" />
  <title
     id="t">MTH091 — Algebraic Literacy</title>
  <desc
     id="d">Traditional left-band cover with subtle grid.</desc>
  <metadata
     id="metadata17278">
    <rdf:RDF>
      <cc:Work
         rdf:about="">
        <dc:title>MTH091 — Algebraic Literacy</dc:title>
      </cc:Work>
    </rdf:RDF>
  </metadata>
  <rect
     x="-2"
     y="-2"
     width="854"
     height="1104"
     fill="#ffffff"
     id="rect17135" />
  <text
     x="78.757217"
     y="1005.0184"
     font-family="Georgia, 'Times New Roman', serif"
     font-size="20px"
     fill="#333333"
     id="text17211"
     style="font-size:16px;fill:#333333"><tspan
       sodipodi:role="line"
       x="78.757217"
       y="1005.0184"
       id="tspan23335"
       style="font-size:16px">Digital edition available at:</tspan><tspan
       sodipodi:role="line"
       x="78.757217"
       y="1025.0183"
       id="tspan14498"
       style="font-size:16px">https://duragauge.github.io/MTH091/</tspan></text>
  <g
     stroke-linejoin="miter"
     stroke-dashoffset="0"
     stroke-dasharray="none"
     stroke-width="1"
     stroke-miterlimit="10"
     stroke-linecap="square"
     id="g2962"
     transform="matrix(-0.68013201,0,0,0.49756134,786.74797,655.38632)"
     style="opacity:0.6;stroke:#00b1c1;stroke-width:10.5629;stroke-miterlimit:4;stroke-dasharray:none;stroke-opacity:1">
    <g
       id="g2944"
       style="stroke:#00b1c1;stroke-width:10.5629;stroke-miterlimit:4;stroke-dasharray:none;stroke-opacity:1" />
    <g
       id="g2960"
       style="stroke:#00b1c1;stroke-width:10.5629;stroke-miterlimit:4;stroke-dasharray:none;stroke-opacity:1">
      <clipPath
         id="clipPath2948">
        <path
           d="M 0,0 V 428 H 1037 V 0 Z"
           id="path2946" />
      </clipPath>
      <g
         clip-path="url(#clip1)"
         id="g2958"
         style="stroke:#00b1c1;stroke-width:10.5629;stroke-miterlimit:4;stroke-dasharray:none;stroke-opacity:1">
        <g
           stroke-linejoin="round"
           stroke-width="2.5"
           stroke-linecap="round"
           fill="none"
           stroke-opacity="0.69804"
           stroke="#006400"
           id="g2956"
           style="stroke:#00b1c1;stroke-width:10.5629;stroke-miterlimit:4;stroke-dasharray:none;stroke-opacity:1">
          <path
             d="m 0.5,202.25 v 0.73 0 l 1,0.74 v 0 l 1,0.75 v 0 l 1,0.76 v 0 l 1,0.78 v 0 l 1,0.79 v 0 l 1,0.81 v 0 l 1,0.81 v 0 l 1,0.83 v 0 l 1,0.84 v 0 l 1,0.84 v 0 l 1,0.86 v 0 l 1,0.87 v 0 l 1,0.88 v 0 l 1,0.89 v 0 l 1,0.89 v 0 l 1,0.91 v 0 l 1,0.91 v 0 l 1,0.92 v 0 l 1,0.93 v 0 l 1,0.94 v 0 l 1,0.94 v 0 l 1,0.95 v 0 l 1,0.96 v 0 l 1,0.96 v 0 l 1,0.97 v 0 l 1,0.97 v 0 l 1,0.97 v 0 l 1,0.99 v 0 l 1,0.98 v 0 l 1,0.99 v 0 l 1,0.99 v 0 l 1,0.99 v 0 l 1,1 v 0 l 1,0.99 v 0 l 1,1 v 0 l 1,1 v 0 l 1,1 v 0 l 1,1 v 0 l 1,1 v 0 l 1,1 v 0 l 1,1 v 0 l 1,0.99 v 0 l 1,1 v 0 l 1,0.99 v 0 l 1,0.99 v 0 l 1,0.99 v 0 l 1,0.98 v 0 l 1,0.98 v 0 l 1,0.98 v 0 l 1,0.97 v 0 l 1,0.96 v 0 l 1,0.96 v 0 l 1,0.96 v 0 l 1,0.95 v 0 l 1,0.94 v 0 l 1,0.93 v 0 l 1,0.93 v 0 l 1,0.92 v 0 l 1,0.92 v 0 l 1,0.9 v 0 l 1,0.9 v 0 l 1,0.88 v 0 l 1,0.88 v 0 l 1,0.87 v 0 l 1,0.85 v 0 l 1,0.85 v 0 l 1,0.83 v 0 l 1,0.83 v 0 l 1,0.81 v 0 l 1,0.8 v 0 l 1,0.79 v 0 l 1,0.78 v 0 l 1,0.76 v 0 l 1,0.75 v 0 l 1,0.74 v 0 l 1,0.72 v 0 l 1,0.71 v 0 l 1,0.7 v 0 l 1,0.68 v 0 l 1,0.67 v 0 l 1,0.65 v 0 l 1,0.63 v 0 l 1,0.62 v 0 l 1,0.61 v 0 l 1,0.59 v 0 l 1,0.57 v 0 l 1,0.55 v 0 l 1,0.54 v 0 l 1,0.53 v 0 l 1,0.5 v 0 l 1,0.49 v 0 l 1,0.47 v 0 l 1,0.45 v 0 l 1,0.43 v 0 l 1,0.42 v 0 l 1,0.4 v 0 l 1,0.38 v 0 l 1,0.36 v 0 l 1,0.34 v 0 l 1,0.32 v 0 l 1,0.31 v 0 l 1,0.28 v 0 l 1,0.27 v 0 l 1,0.25 v 0 l 1,0.22 v 0 l 1,0.21 v 0 l 1,0.19 v 0 l 1,0.17 v 0 l 1,0.15 v 0 l 1,0.13 v 0 l 1,0.1 v 0 l 1,0.09 v 0 l 1,0.07 v 0 l 1,0.05 v 0 l 1,0.03 v 0 l 1,0.01 v 0 l 1,-0.01 v 0 l 1,-0.03 v 0 l 1,-0.05 v 0 l 1,-0.07 v 0 l 1,-0.09 v 0 l 1,-0.11 v 0 l 1,-0.13 v 0 l 1,-0.15 v 0 l 1,-0.17 v 0 l 1,-0.19 v 0 l 1,-0.21 v 0 l 1,-0.23 v 0 l 1,-0.25 v 0 l 1,-0.27 v 0 l 1,-0.28 v 0 l 1,-0.31 v 0 l 1,-0.33 v 0 l 1,-0.34 v 0 l 1,-0.36 v 0 l 1,-0.38 v 0 l 1,-0.4 v 0 l 1,-0.42 v 0 l 1,-0.44 v 0 l 1,-0.45 v 0 l 1,-0.47 v 0 l 1,-0.49 v 0 l 1,-0.51 v 0 l 1,-0.52 v 0 l 1,-0.54 v 0 l 1,-0.56 v 0 l 1,-0.57 v 0 l 1,-0.59 v 0 l 1,-0.6 v 0 l 1,-0.63 v 0 l 1,-0.63 v 0 l 1,-0.66 v 0 l 1,-0.66 v 0 l 1,-0.69 v 0 l 1,-0.69 v 0 l 1,-0.71 v 0 l 1,-0.73 v 0 l 1,-0.74 v 0 l 1,-0.75 v 0 l 1,-0.76 v 0 l 1,-0.78 v 0 l 1,-0.79 v 0 l 1,-0.8 v 0 l 1,-0.82 v 0 l 1,-0.82 v 0 l 1,-0.84 v 0 l 1,-0.85 v 0 l 1,-0.85 v 0 l 1,-0.87 v 0 l 1,-0.88 v 0 l 1,-0.89 v 0 l 1,-0.89 v 0 l 1,-0.91 v 0 l 1,-0.91 v 0 l 1,-0.92 v 0 l 1,-0.93 v 0 l 1,-0.94 v 0 l 1,-0.94 v 0 l 1,-0.95 v 0 l 1,-0.95 v 0 l 1,-0.96 v 0 l 1,-0.97 v 0 l 1,-0.97 v 0 l 1,-0.98 v 0 l 1,-0.98 v 0 l 1,-0.98 v 0 l 1,-0.99 v 0 l 1,-0.99 v 0 l 1,-0.99 v 0 l 1,-1 v 0 l 1,-0.99 v 0 l 1,-1 v 0 l 1,-1 v 0 l 1,-1 v 0 l 1,-1 v 0 l 1,-1 v 0 l 1,-1 v 0 l 1,-1 v 0 l 1,-0.99 v 0 l 1,-1 v 0 l 1,-0.99 v 0 l 1,-0.99 v 0 l 1,-0.99 v 0 l 1,-0.98 v 0 l 1,-0.98 v 0 l 1,-0.98 v 0 l 1,-0.97 v 0 l 1,-0.97 v 0 l 1,-0.96 v 0 l 1,-0.95 v 0 l 1,-0.95 v 0 l 1,-0.94 v 0 l 1,-0.94 v 0 l 1,-0.93 v 0 l 1,-0.92 v 0 l 1,-0.91 v 0 l 1,-0.91 v 0 l 1,-0.89 v 0 l 1,-0.89 v 0 l 1,-0.88 v 0 l 1,-0.87 v 0 l 1,-0.85 v 0 l 1,-0.85 v 0 l 1,-0.84 v 0 l 1,-0.82 v 0 l 1,-0.82 v 0 l 1,-0.8 v 0 l 1,-0.79 v 0 l 1,-0.78 v 0 l 1,-0.76 v 0 l 1,-0.75 v 0 l 1,-0.74 v 0 l 1,-0.73 v 0 l 1,-0.71 v 0 l 1,-0.69 v 0 l 1,-0.69 v 0 l 1,-0.66 v 0 l 1,-0.66 v 0 l 1,-0.63 v 0 l 1,-0.63 v 0 l 1,-0.6 v 0 l 1,-0.59 v 0 l 1,-0.57 v 0 l 1,-0.56 v 0 l 1,-0.54 v 0 l 1,-0.52 v 0 l 1,-0.51 v 0 l 1,-0.49 v 0 l 1,-0.47 v 0 l 1,-0.45 v 0 l 1,-0.44 v 0 l 1,-0.42 v 0 l 1,-0.4 v 0 l 1,-0.38 v 0 l 1,-0.36 v 0 l 1,-0.34 v 0 l 1,-0.33 v 0 l 1,-0.31 v 0 l 1,-0.28 v 0 l 1,-0.27 v 0 l 1,-0.25 v 0 l 1,-0.23 v 0 l 1,-0.21 v 0 l 1,-0.19 v 0 l 1,-0.17 v 0 l 1,-0.15 v 0 l 1,-0.13 v 0 l 1,-0.11 v 0 l 1,-0.09 v 0 l 1,-0.07 v 0 l 1,-0.05 v 0 l 1,-0.03 v 0 l 1,-0.01 v 0.01 l 1,-0.01 v 0.01 l 1,0.03 v 0 l 1,0.05 v 0 l 1,0.07 v 0 l 1,0.09 v 0 l 1,0.1 v 0 l 1,0.13 v 0 l 1,0.15 v 0 l 1,0.17 v 0 l 1,0.19 v 0 l 1,0.21 v 0 l 1,0.22 v 0 l 1,0.25 v 0 l 1,0.27 v 0 l 1,0.28 v 0 l 1,0.31 v 0 l 1,0.32 v 0 l 1,0.34 v 0 l 1,0.36 v 0 l 1,0.38 v 0 l 1,0.4 v 0 l 1,0.42 v 0 l 1,0.43 v 0 l 1,0.45 v 0 l 1,0.47 v 0 l 1,0.49 v 0 l 1,0.5 v 0 l 1,0.53 v 0 l 1,0.54 v 0 l 1,0.55 v 0 l 1,0.57 v 0 l 1,0.59 v 0 l 1,0.61 v 0 l 1,0.62 v 0 l 1,0.63 v 0 l 1,0.65 v 0 l 1,0.67 v 0 l 1,0.68 v 0 l 1,0.7 v 0 l 1,0.71 v 0 l 1,0.72 v 0 l 1,0.74 v 0 l 1,0.75 v 0 l 1,0.76 v 0 l 1,0.78 v 0 l 1,0.79 v 0 l 1,0.8 v 0 l 1,0.81 v 0 l 1,0.83 v 0 l 1,0.83 v 0 l 1,0.85 v 0 l 1,0.85 v 0 l 1,0.87 v 0 l 1,0.88 v 0 l 1,0.88 v 0 l 1,0.9 v 0 l 1,0.9 v 0 l 1,0.92 v 0 l 1,0.92 v 0 l 1,0.93 v 0 l 1,0.93 v 0 l 1,0.94 v 0 l 1,0.95 v 0 l 1,0.96 v 0 l 1,0.96 v 0 l 1,0.96 v 0 l 1,0.97 v 0 l 1,0.98 v 0 l 1,0.98 v 0 l 1,0.98 v 0 l 1,0.99 v 0 l 1,0.99 v 0 l 1,0.99 v 0 l 1,1 v 0 l 1,0.99 v 0 l 1,1 v 0 l 1,1 v 0 l 1,1 v 0 l 1,1 v 0 l 1,1 v 0 l 1,1 v 0 l 1,1 v 0 l 1,0.99 v 0 l 1,1 v 0 l 1,0.99 v 0 l 1,0.99 v 0 l 1,0.99 v 0 l 1,0.98 v 0 l 1,0.99 v 0 l 1,0.97 v 0 l 1,0.97 v 0 l 1,0.97 v 0 l 1,0.96 v 0 l 1,0.96 v 0 l 1,0.95 v 0 l 1,0.94 v 0 l 1,0.94 v 0 l 1,0.93 v 0 l 1,0.92 v 0 l 1,0.91 v 0 l 1,0.91 v 0 l 1,0.89 v 0 l 1,0.89 v 0 l 1,0.88 v 0 l 1,0.87 v 0 l 1,0.86 v 0 l 1,0.84 v 0 l 1,0.84 v 0 l 1,0.83 v 0 l 1,0.81 v 0 l 1,0.81 v 0 l 1,0.79 v 0 l 1,0.78 v 0 l 1,0.76 v 0 l 1,0.75 v 0 l 1,0.74 v 0 l 1,0.73 v 0 l 1,0.71 v 0 l 1,0.7 v 0 l 1,0.68 v 0 l 1,0.67 v 0 l 1,0.66 v 0 l 1,0.63 v 0 l 1,0.63 v 0 l 1,0.6 v 0 l 1,0.59 v 0 l 1,0.58 v 0 l 1,0.56 v 0 l 1,0.54 v 0 l 1,0.52 v 0 l 1,0.51 v 0 l 1,0.49 v 0 l 1,0.47 v 0 l 1,0.46 v 0 l 1,0.44 v 0 l 1,0.42 v 0 l 1,0.4 v 0 l 1,0.38 v 0 l 1,0.36 v 0 l 1,0.35 v 0 l 1,0.32 v 0 l 1,0.31 v 0 l 1,0.29 v 0 l 1,0.27 v 0 l 1,0.25 v 0 l 1,0.23 v 0 l 1,0.21 v 0 l 1,0.19 v 0 l 1,0.17 v 0 l 1,0.15 v 0 l 1,0.14 v 0 l 1,0.11 v 0 l 1,0.09 v 0 l 1,0.07 v 0 l 1,0.06 v 0 l 1,0.03 v 0 l 1,0.01 v -0.01 l 1,0.01 v -0.01 l 1,-0.03 v 0 l 1,-0.04 v 0 l 1,-0.07 v 0 l 1,-0.09 v 0 l 1,-0.11 v 0 l 1,-0.12 v 0 l 1,-0.15 v 0 l 1,-0.17 v 0 l 1,-0.18 v 0 l 1,-0.21 v 0 l 1,-0.22 v 0 l 1,-0.25 v 0 l 1,-0.26 v 0 l 1,-0.29 v 0 l 1,-0.3 v 0 l 1,-0.32 v 0 l 1,-0.34 v 0 l 1,-0.36 v 0 l 1,-0.38 v 0 l 1,-0.4 v 0 l 1,-0.41 v 0 l 1,-0.43 v 0 l 1,-0.46 v 0 l 1,-0.46 v 0 l 1,-0.49 v 0 l 1,-0.5 v 0 l 1,-0.52 v 0 l 1,-0.54 v 0 l 1,-0.56 v 0 l 1,-0.57 v 0 l 1,-0.58 v 0 l 1,-0.61 v 0 l 1,-0.62 v 0 l 1,-0.63 v 0 l 1,-0.65 v 0 l 1,-0.67 v 0 l 1,-0.68 v 0 l 1,-0.69 v 0 l 1,-0.71 v 0 l 1,-0.72 v 0 l 1,-0.74 v 0 l 1,-0.75 v 0 l 1,-0.76 v 0 l 1,-0.78 v 0 l 1,-0.78 v 0 l 1,-0.8 v 0 l 1,-0.82 v 0 l 1,-0.82 v 0 l 1,-0.83 v 0 l 1,-0.85 v 0 l 1,-0.86 v 0 l 1,-0.86 v 0 l 1,-0.88 v 0 l 1,-0.88 v 0 l 1,-0.9 v 0 l 1,-0.9 v 0 l 1,-0.91 v 0 l 1,-0.92 v 0 l 1,-0.93 v 0 l 1,-0.94 v 0 l 1,-0.94 v 0 l 1,-0.95 v 0 l 1,-0.95 v 0 l 1,-0.96 v 0 l 1,-0.97 v 0 l 1,-0.97 v 0 l 1,-0.97 v 0 l 1,-0.98 v 0 l 1,-0.98 v 0 l 1,-0.99 v 0 l 1,-0.99 v 0 l 1,-0.99 v 0 l 1,-1 v 0 l 1,-0.99 v 0 l 1,-1 v 0 l 1,-1 v 0 l 1,-1 v 0 l 1,-1 v 0 l 1,-1 v 0 l 1,-1 v 0 l 1,-1 v 0 l 1,-1 v 0 l 1,-0.99 v 0 l 1,-0.99 v 0 l 1,-0.99 v 0 l 1,-0.99 v 0 l 1,-0.99 v 0 l 1,-0.98 v 0 l 1,-0.97 v 0 l 1,-0.98 v 0 l 1,-0.96 v 0 l 1,-0.96 v 0 l 1,-0.96 v 0 l 1,-0.95 v 0 l 1,-0.95 v 0 l 1,-0.93 v 0 l 1,-0.93 v 0 l 1,-0.92 v 0 l 1,-0.92 v 0 l 1,-0.9 v 0 l 1,-0.9 v 0 l 1,-0.89 v 0 l 1,-0.88 v 0 l 1,-0.87 v 0 l 1,-0.86 v 0 l 1,-0.85 v 0 l 1,-0.84 v 0 l 1,-0.82 v 0 l 1,-0.82 v 0 l 1,-0.8 v 0 l 1,-0.79 v 0 l 1,-0.78 v 0 l 1,-0.77 v 0 l 1,-0.75 v 0 l 1,-0.75 v 0 l 1,-0.72 v 0 l 1,-0.72 v 0 l 1,-0.69 v 0 l 1,-0.69 v 0 l 1,-0.67 v 0 l 1,-0.65 v 0 l 1,-0.64 v 0 l 1,-0.63 v 0 l 1,-0.61 v 0 l 1,-0.59 v 0 l 1,-0.57 v 0 l 1,-0.56 v 0 l 1,-0.55 v 0 l 1,-0.52 v 0 l 1,-0.51 v 0 l 1,-0.49 v 0 l 1,-0.48 v 0 l 1,-0.45 v 0 l 1,-0.44 v 0 l 1,-0.42 v 0 l 1,-0.41 v 0 l 1,-0.38 v 0 l 1,-0.36 v 0 l 1,-0.35 v 0 l 1,-0.33 v 0 l 1,-0.31 v 0 l 1,-0.29 v 0 l 1,-0.27 v 0 l 1,-0.25 v 0 l 1,-0.23 v 0 l 1,-0.21 v 0 l 1,-0.2 v 0 l 1,-0.17 v 0 l 1,-0.15 v 0 l 1,-0.14 v 0 l 1,-0.11 v 0 l 1,-0.09 v 0 l 1,-0.08 v 0 l 1,-0.05 v 0 l 1,-0.04 v 0 l 1,-0.01 v 0.01 l 1,-0.01 v 0.01 l 1,0.02 v 0 l 1,0.05 v 0 l 1,0.06 v 0 l 1,0.09 v 0 l 1,0.11 v 0 l 1,0.12 v 0 l 1,0.15 v 0 l 1,0.16 v 0 l 1,0.19 v 0 l 1,0.2 v 0 l 1,0.23 v 0 l 1,0.24 v 0 l 1,0.26 v 0 l 1,0.28 v 0 l 1,0.31 v 0 l 1,0.32 v 0 l 1,0.34 v 0 l 1,0.35 v 0 l 1,0.38 v 0 l 1,0.39 v 0 l 1,0.42 v 0 l 1,0.43 v 0 l 1,0.45 v 0 l 1,0.47 v 0 l 1,0.48 v 0 l 1,0.5 v 0 l 1,0.52 v 0 l 1,0.54 v 0 l 1,0.55 v 0 l 1,0.57 v 0 l 1,0.59 v 0 l 1,0.6 v 0 l 1,0.62 v 0 l 1,0.63 v 0 l 1,0.65 v 0 l 1,0.66 v 0 l 1,0.68 v 0 l 1,0.69 v 0 l 1,0.71 v 0 l 1,0.72 v 0 l 1,0.74 v 0 l 1,0.75 v 0 l 1,0.76 v 0 l 1,0.77 v 0 l 1,0.79 v 0 l 1,0.8 v 0 l 1,0.81 v 0 l 1,0.82 v 0 l 1,0.84 v 0 l 1,0.84 v 0 l 1,0.86 v 0 l 1,0.86 v 0 l 1,0.88 v 0 l 1,0.88 v 0 l 1,0.9 v 0 l 1,0.9 v 0 l 1,0.91 v 0 l 1,0.92 v 0 l 1,0.93 v 0 l 1,0.93 v 0 l 1,0.94 v 0 l 1,0.95 v 0 l 1,0.95 v 0 l 1,0.96 v 0 l 1,0.97 v 0 l 1,0.97 v 0 l 1,0.97 v 0 l 1,0.98 v 0 l 1,0.99 v 0 l 1,0.98 v 0 l 1,0.99 v 0 l 1,0.99 v 0 l 1,1 v 0 l 1,0.99 v 0 l 1,1 v 0 l 1,1 v 0 l 1,1 v 0 l 1,1 v 0 l 1,1 v 0 l 1,1 v 0 l 1,1 v 0 l 1,1 v 0 l 1,0.99 v 0 l 1,0.99 v 0 l 1,1 v 0 l 1,0.98 v 0 l 1,0.99 v 0 l 1,0.98 v 0 l 1,0.98 v 0 l 1,0.97 v 0 l 1,0.97 v 0 l 1,0.96 v 0 l 1,0.96 v 0 l 1,0.95 v 0 l 1,0.94 v 0 l 1,0.94 v 0 l 1,0.93 v 0 l 1,0.92 v 0 l 1,0.92 v 0 l 1,0.9 v 0 l 1,0.9 v 0 l 1,0.89 v 0 l 1,0.88 v 0 l 1,0.87 v 0 l 1,0.86 v 0 l 1,0.85 v 0 l 1,0.84 v 0 l 1,0.83 v 0 l 1,0.81 v 0 l 1,0.81 v 0 l 1,0.79 v 0 l 1,0.78 v 0 l 1,0.77 v 0 l 1,0.76 v 0 l 1,0.74 v 0 l 1,0.72 v 0 l 1,0.72 v 0 l 1,0.7 v 0 l 1,0.68 v 0 l 1,0.68 v 0 l 1,0.65 v 0 l 1,0.64 v 0 l 1,0.63 v 0 l 1,0.61 v 0 l 1,0.59 v 0 l 1,0.58 v 0 l 1,0.56 v 0 l 1,0.54 v 0 l 1,0.53 v 0 l 1,0.51 v 0 l 1,0.49 v 0 l 1,0.48 v 0 l 1,0.46 v 0 l 1,0.44 v 0 l 1,0.42 v 0 l 1,0.4 v 0 l 1,0.39 v 0 l 1,0.37 v 0 l 1,0.34 v 0 l 1,0.33 v 0 l 1,0.31 v 0 l 1,0.3 v 0 l 1,0.27 v 0 l 1,0.25 v 0 l 1,0.23 v 0 l 1,0.22 v 0 l 1,0.19 v 0 l 1,0.18 v 0 l 1,0.15 v 0 l 1,0.14 v 0 l 1,0.11 v 0 l 1,0.1 v 0 l 1,0.07 v 0 l 1,0.06 v 0 l 1,0.03 v 0 l 1,0.02 v -0.01 l 1,0.01 v -0.01 l 1,-0.02 v 0 l 1,-0.04 v 0 l 1,-0.07 v 0 l 1,-0.08 v 0 l 1,-0.11 v 0 l 1,-0.12 v 0 l 1,-0.15 v 0 l 1,-0.16 v 0 l 1,-0.18 v 0 l 1,-0.21 v 0 l 1,-0.22 v 0 l 1,-0.24 v 0 l 1,-0.26 v 0 l 1,-0.28 v 0 l 1,-0.3 v 0 l 1,-0.32 v 0 l 1,-0.34 v 0 l 1,-0.35 v 0 l 1,-0.38 v 0 l 1,-0.39 v 0 l 1,-0.41 v 0 l 1,-0.43 v 0 l 1,-0.45 v 0 l 1,-0.47 v 0 l 1,-0.48 v 0 l 1,-0.5 v 0 l 1,-0.52 v 0 l 1,-0.53 v 0 l 1,-0.56 v 0 l 1,-0.56 v 0 l 1,-0.59 v 0 l 1,-0.6 v 0 l 1,-0.62 v 0 l 1,-0.63 v 0 l 1,-0.65 v 0 l 1,-0.66 v 0 l 1,-0.68 v 0 l 1,-0.69 v 0 l 1,-0.71 v 0 l 1,-0.72 v 0 l 1,-0.73 v 0 l 1,-0.75 v 0 l 1,-0.76 v 0 l 1,-0.77 v 0 l 1,-0.79 v 0 l 1,-0.8 v 0 l 1,-0.81 v 0 l 1,-0.82 v 0 l 1,-0.83 v 0 l 1,-0.84 v 0 l 1,-0.86 v 0 l 1,-0.86 v 0 l 1,-0.88 v 0 l 1,-0.88 v 0 l 1,-0.9 v 0 l 1,-0.9 v 0 l 1,-0.91 v 0 l 1,-0.92 v 0 l 1,-0.92 v 0 l 1,-0.94 v 0 l 1,-0.94 v 0 l 1,-0.94 v 0 l 1,-0.96 v 0 l 1,-0.96 v 0 l 1,-0.96 v 0 l 1,-0.97 v 0 l 1,-0.98 v 0 l 1,-0.97 v 0 l 1,-0.99 v 0 l 1,-0.98 v 0 l 1,-0.99 v 0 l 1,-0.99 v 0 l 1,-1 v 0 l 1,-1 v 0 l 1,-0.99 v 0 l 1,-1 v 0 l 1,-1 v 0 l 1,-1 v 0 l 1,-1 v 0 l 1,-1 v 0 l 1,-1 v 0 l 1,-1 v 0 l 1,-0.99 v 0 l 1,-1 v 0 l 1,-0.99 v 0 l 1,-0.99 v 0 l 1,-0.98 v 0 l 1,-0.98 v 0 l 1,-0.98 v 0 l 1,-0.97 v 0 l 1,-0.97 v 0 l 1,-0.96 v 0 l 1,-0.96 v 0 l 1,-0.95 v 0 l 1,-0.95 v 0 l 1,-0.93 v 0 l 1,-0.93 v 0 l 1,-0.93 v 0 l 1,-0.91 v 0 l 1,-0.91 v 0 l 1,-0.9 v 0 l 1,-0.89 v 0 l 1,-0.88 v 0 l 1,-0.87 v 0 l 1,-0.86 v 0 l 1,-0.85 v 0 l 1,-0.84 v 0 l 1,-0.83 v 0 l 1,-0.82 v 0 l 1,-0.81 v 0 l 1,-0.79 v 0 l 1,-0.78 v 0 l 1,-0.77 v 0 l 1,-0.76 v 0 l 1,-0.74 v 0 l 1,-0.73 v 0 l 1,-0.71 v 0 l 1,-0.7 v 0 l 1,-0.69 v 0 l 1,-0.67 v 0 l 1,-0.66 v 0 l 1,-0.64 v 0 l 1,-0.63 v 0 l 1,-0.61 v 0 l 1,-0.59 v 0 l 1,-0.58 v 0 l 1,-0.57 v 0 l 1,-0.54 v 0 l 1,-0.53 v 0 l 1,-0.51 v 0 l 1,-0.5 v 0 l 1,-0.47 v 0 l 1,-0.46 v 0 l 1,-0.44 v 0 l 1,-0.43 v 0 l 1,-0.4 v 0 l 1,-0.39 v 0 l 1,-0.37 v 0 l 1,-0.35 v 0 l 1,-0.33 v 0 l 1,-0.31 v 0 l 1,-0.29 v 0 l 1,-0.28 v 0 l 1,-0.25 v 0 l 1,-0.24 v 0 l 1,-0.21 v 0 l 1,-0.2 v 0 l 1,-0.17 v 0 l 1,-0.16 v 0 l 1,-0.14 v 0 l 1,-0.11 v 0 l 1,-0.1 v 0 l 1,-0.08 v 0 l 1,-0.05 v 0 l 1,-0.04 v 0 l 1,-0.02 v 0 h 1 v 0 l 1,0.03 v 0 l 1,0.04 v 0 l 1,0.06 v 0 l 1,0.09 v 0 l 1,0.1 v 0 l 1,0.12 v 0 l 1,0.14 v 0 l 1,0.16 v 0 l 1,0.19 v 0 l 1,0.2 v 0 l 1,0.22 v 0 l 1,0.24 v 0 l 1,0.26 v 0 l 1,0.28 v 0 l 1,0.3 v 0 l 1,0.31 v 0 l 1,0.34 v 0 l 1,0.36 v 0 l 1,0.37 v 0 l 1,0.39 v 0 l 1,0.41 v 0 l 1,0.43 v 0 l 1,0.45 v 0 l 1,0.46 v 0 l 1,0.48 v 0 l 1,0.5 v 0 l 1,0.52 v 0 l 1,0.53 v 0 l 1,0.55 v 0 l 1,0.57 v 0 l 1,0.58 v 0 l 1,0.6 v 0 l 1,0.62 v 0 l 1,0.63 v 0 l 1,0.64 v 0 l 1,0.67 v 0 l 1,0.67 v 0 l 1,0.69 v 0 l 1,0.71 v 0 l 1,0.72 v 0 l 1,0.73 v 0 l 1,0.75 v 0 l 1,0.76 v 0 l 1,0.77 v 0 l 1,0.78 v 0 l 1,0.8 v 0 l 1,0.81 v 0 l 1,0.82 v 0 l 1,0.83 v 0 l 1,0.85 v 0 l 1,0.85 v 0 l 1,0.86 v 0 l 1,0.88 v 0 l 1,0.88 v 0 l 1,0.89 v 0 l 1,0.91 v 0 l 1,0.91 v 0 l 1,0.91 v 0 l 1,0.93 v 0 l 1,0.93 v 0 l 1,0.94 v 0 l 1,0.95 v 0 l 1,0.95 v 0 l 1,0.96 v 0 l 1,0.96 v 0 l 1,0.97 v 0 l 1,0.98 v 0 l 1,0.98 v 0 l 1,0.98 v 0 l 1,0.98 v 0 l 1,0.99 v 0 l 1,1 v 0 l 1,0.99 v 0 l 1,1 v 0 l 1,0.99 v 0 l 1,1 v 0 l 1,1 v 0 l 1,1 v 0 l 1,1 v 0 l 1,1 v 0 l 1,1 v 0 l 1,1 v 0 l 1,0.99 v 0 l 1,1 v 0 l 1,0.99 v 0 l 1,0.99 v 0 l 1,0.98 v 0 l 1,0.98 v 0 l 1,0.98 v 0 l 1,0.97 v 0 l 1,0.97 v 0 l 1,0.97 v 0 l 1,0.95 v 0 l 1,0.95 v 0 l 1,0.95 v 0 l 1,0.94 v 0 l 1,0.93 v 0 l 1,0.92 v 0 l 1,0.92 v 0 l 1,0.91 v 0 l 1,0.9 v 0 l 1,0.89 v 0 l 1,0.88 v 0 l 1,0.87 v 0 l 1,0.86 v 0 l 1,0.86 v 0 l 1,0.84 v 0 l 1,0.83 v 0 l 1,0.81 v 0 l 1,0.81 v 0 l 1,0.8 v 0 l 1,0.78 v 0 l 1,0.77 v 0 l 1,0.76 v 0 l 1,0.74 v 0 l 1,0.73 v 0 l 1,0.72 v 0 l 1,0.7 v 0 l 1,0.69 v 0 l 1,0.67 v 0 l 1,0.66 v 0 l 1,0.64 v 0 l 1,0.63 v 0 l 1,0.61 v 0 l 1,0.6 v 0 l 1,0.58 v 0 l 1,0.56 v 0 l 1,0.55 v 0 l 1,0.53 v 0 l 1,0.51 v 0 l 1,0.5 v 0 l 1,0.48 v 0 l 1,0.46 v 0 l 1,0.44 v 0 l 1,0.42"
             id="path2950"
             style="stroke:#00b1c1;stroke-width:10.5629;stroke-miterlimit:4;stroke-dasharray:none;stroke-opacity:1" />
          <title
             id="title2952">Function f</title>
          <desc
             id="desc2954">f(x) = sin(x)</desc>
        </g>
      </g>
    </g>
  </g>
  <rect
     x="-851.99994"
     y="0"
     width="150"
     height="1100"
     fill="#6a7b2b"
     id="rect17137"
     style="fill:#5f7110;fill-opacity:1"
     transform="scale(-1,1)" />
  <g
     opacity=".15"
     stroke="#ffffff"
     stroke-width="1"
     id="g17203"
     style="opacity:0.4"
     transform="matrix(-1,0,0,1,852,0)">
    <path
       d="M 20,0 V 1100"
       id="path17139" />
    <path
       d="M 40,0 V 1100"
       id="path17141" />
    <path
       d="M 60,0 V 1100"
       id="path17143" />
    <path
       d="M 80,0 V 1100"
       id="path17145" />
    <path
       d="M 100,0 V 1100"
       id="path17147" />
    <path
       d="M 120,0 V 1100"
       id="path17149" />
    <path
       d="M 0,40 H 150"
       id="path17151" />
    <path
       d="M 0,80 H 150"
       id="path17153" />
    <path
       d="M 0,120 H 150"
       id="path17155" />
    <path
       d="M 0,160 H 150"
       id="path17157" />
    <path
       d="M 0,200 H 150"
       id="path17159" />
    <path
       d="M 0,240 H 150"
       id="path17161" />
    <path
       d="M 0,280 H 150"
       id="path17163" />
    <path
       d="M 0,320 H 150"
       id="path17165" />
    <path
       d="M 0,360 H 150"
       id="path17167" />
    <path
       d="M 0,400 H 150"
       id="path17169" />
    <path
       d="M 0,440 H 150"
       id="path17171" />
    <path
       d="M 0,480 H 150"
       id="path17173" />
    <path
       d="M 0,520 H 150"
       id="path17175" />
    <path
       d="M 0,560 H 150"
       id="path17177" />
    <path
       d="M 0,600 H 150"
       id="path17179" />
    <path
       d="M 0,640 H 150"
       id="path17181" />
    <path
       d="M 0,680 H 150"
       id="path17183" />
    <path
       d="M 0,720 H 150"
       id="path17185" />
    <path
       d="M 0,760 H 150"
       id="path17187" />
    <path
       d="M 0,800 H 150"
       id="path17189" />
    <path
       d="M 0,840 H 150"
       id="path17191" />
    <path
       d="M 0,880 H 150"
       id="path17193" />
    <path
       d="M 0,920 H 150"
       id="path17195" />
    <path
       d="M 0,960 H 150"
       id="path17197" />
    <path
       d="M 0,1000 H 150"
       id="path17199" />
    <path
       d="M 0,1040 H 150"
       id="path17201" />
  </g>
  <path
     style="opacity:0.6;fill:none;stroke:#c94d00;stroke-width:6.33;stroke-linecap:butt;stroke-linejoin:miter;stroke-miterlimit:4;stroke-dasharray:none;stroke-opacity:1"
     d="m 699.99999,920.00002 c -347.958,-70.3131 -521.3035,-337.3386 -531.6989,-726.90256"
     id="path2942"
     sodipodi:nodetypes="cc" />
  <line
     x1="660"
     y1="300.89655"
     x2="109.99994"
     y2="300.89655"
     stroke="#6a7b2b"
     stroke-width="2"
     id="line2964"
     style="stroke:#f6d654;stroke-width:3.89518;stroke-miterlimit:4;stroke-dasharray:none;stroke-opacity:1" />
</svg>
