<?xml version="1.0" encoding="UTF-8" standalone="no"?>
<!--?xml version="1.0" encoding="UTF-8"?-->

<svg
   viewBox="0 0 850 1100"
   role="img"
   aria-labelledby="t d"
   version="1.1"
   id="svg17215"
   sodipodi:docname="cover_front.svg"
   inkscape:version="1.1.2 (b8e25be833, 2022-02-05)"
   inkscape:export-filename="C:\Users\Nolan Mitchell\Documents\GitHub\MTH091\cover4.png"
   inkscape:export-xdpi="299.99713"
   inkscape:export-ydpi="299.99713"
   xmlns:inkscape="http://www.inkscape.org/namespaces/inkscape"
   xmlns:sodipodi="http://sodipodi.sourceforge.net/DTD/sodipodi-0.dtd"
   xmlns="http://www.w3.org/2000/svg"
   xmlns:svg="http://www.w3.org/2000/svg"
   xmlns:rdf="http://www.w3.org/1999/02/22-rdf-syntax-ns#"
   xmlns:cc="http://creativecommons.org/ns#"
   xmlns:dc="http://purl.org/dc/elements/1.1/">
  <defs
     id="defs17219" />
  <sodipodi:namedview
     id="namedview17217"
     pagecolor="#ffffff"
     bordercolor="#666666"
     borderopacity="1.0"
     inkscape:pageshadow="2"
     inkscape:pageopacity="0.0"
     inkscape:pagecheckerboard="0"
     showgrid="false"
     inkscape:zoom="0.74909091"
     inkscape:cx="441.86893"
     inkscape:cy="605.40048"
     inkscape:window-width="1920"
     inkscape:window-height="991"
     inkscape:window-x="-9"
     inkscape:window-y="-9"
     inkscape:window-maximized="1"
     inkscape:current-layer="svg17215" />
  <title
     id="t">MTH091 — Algebraic Literacy</title>
  <desc
     id="d">Traditional left-band cover with subtle grid.</desc>
  <rect
     x="-2"
     y="-2"
     width="854"
     height="1104"
     fill="#ffffff"
     id="rect17135" />
  <path
     style="opacity:0.6;fill:none;stroke:#c94d00;stroke-width:6.33;stroke-linecap:butt;stroke-linejoin:miter;stroke-miterlimit:4;stroke-dasharray:none;stroke-opacity:1"
     d="M 150,920 C 497.958,849.68691 671.30351,582.66138 681.69889,193.09746"
     id="path1062"
     sodipodi:nodetypes="cc" />
  <g
     id="g54596"
     transform="matrix(0,0.41034584,0.41034584,0,507.54866,877.41963)"
     inkscape:export-filename="C:\Users\Nolan Mitchell\Desktop\GEOs_hexagons_final_version.png"
     inkscape:export-xdpi="299.99713"
     inkscape:export-ydpi="299.99713">
    <g
       id="g54344"
       transform="translate(277.009,495.483)">
      <path
         d="m 0,0 c -38.487,-0.003 -69.689,31.188 -69.692,69.667 -0.002,38.479 31.195,69.674 69.682,69.677 38.487,0.003 69.688,-31.187 69.692,-69.667 C 69.684,31.198 38.488,0.003 0,0 Z m -0.015,-10.794 c -44.452,-0.003 -80.49,36.022 -80.493,80.465 -0.003,44.445 36.041,80.474 80.494,80.478 44.453,0.002 80.479,-36.023 80.482,-80.466 0.002,-44.444 -36.03,-80.474 -80.483,-80.477 z m 33.95,117.083 c -1.496,0 -2.708,-1.212 -2.708,-2.709 0,-1.496 1.213,-2.709 2.708,-2.709 1.496,0 2.709,1.213 2.709,2.709 0,1.497 -1.213,2.709 -2.709,2.709 z m 0,-73.22 c -1.496,0 -2.708,1.213 -2.708,2.71 0,1.495 1.213,2.708 2.708,2.708 1.496,0 2.709,-1.213 2.709,-2.709 0,-1.496 -1.213,-2.709 -2.709,-2.709 z m -70.558,70.558 c 0,-1.496 1.213,-2.709 2.709,-2.709 1.496,10e-4 2.709,1.214 2.709,2.709 0,1.496 -1.213,2.709 -2.709,2.709 -1.496,0 -2.709,-1.213 -2.709,-2.709 z m 0,-67.896 c 0,1.496 1.213,2.709 2.709,2.709 1.496,0 2.709,-1.213 2.709,-2.709 0,-1.496 -1.213,-2.709 -2.709,-2.709 -1.496,0 -2.709,1.213 -2.709,2.709"
         style="fill:#4d2005;fill-opacity:1;fill-rule:evenodd;stroke:none"
         id="path54346" />
    </g>
    <g
       id="g54348"
       transform="translate(263.609,565.152)">
      <path
         d="m 0,0 c 0,-8.842 -14.815,-16.015 -33.092,-16.015 -5.719,0 -11.1,0.703 -15.793,1.938 -1,0.268 -1.771,1.103 -1.959,2.132 -0.744,3.989 -1.103,7.983 -1.1,11.944 -0.003,3.961 0.356,7.953 1.1,11.943 0.188,1.03 0.959,1.864 1.959,2.132 4.693,1.235 10.074,1.937 15.793,1.937 C -14.815,16.011 0,8.843 0,0 Z m -36.942,0 c 0,0.721 0.016,1.431 0.047,2.144 0.032,0.92 0.709,1.682 1.593,1.837 1.015,0.196 2.125,0.305 3.286,0.305 3.386,0 6.328,-0.919 7.819,-2.27 -1.918,4.372 -9.942,7.653 -19.549,7.653 -0.956,0 -1.895,-0.031 -2.815,-0.093 l -0.065,-0.003 c -0.512,0 -0.927,0.415 -0.927,0.927 0,0.451 0.317,0.823 0.741,0.908 2.908,0.561 6.081,0.871 9.404,0.871 14.014,0 25.375,-5.498 25.375,-12.279 0,-6.781 -11.361,-12.281 -25.375,-12.281 -3.323,0 -6.496,0.309 -9.404,0.87 -0.424,0.086 -0.741,0.458 -0.741,0.907 0,0.513 0.415,0.928 0.927,0.928 l 0.065,-0.002 c 0.92,-0.062 1.859,-0.095 2.815,-0.095 9.607,0 17.631,3.283 19.549,7.654 -1.491,-1.351 -4.433,-2.27 -7.819,-2.27 -1.161,0 -2.271,0.109 -3.286,0.305 -0.884,0.155 -1.561,0.917 -1.593,1.837 -0.031,0.713 -0.047,1.427 -0.047,2.147 z M 26.77,0 c 0,-8.842 14.815,-16.015 33.092,-16.015 5.719,0 11.099,0.703 15.794,1.938 1,0.268 1.77,1.103 1.958,2.132 0.744,3.989 1.103,7.983 1.1,11.944 0.003,3.961 -0.356,7.953 -1.1,11.943 -0.188,1.03 -0.958,1.864 -1.958,2.132 -4.695,1.235 -10.075,1.937 -15.794,1.937 C 41.585,16.011 26.77,8.843 26.77,0 Z m 36.941,0 c 0,0.721 -0.015,1.431 -0.047,2.144 -0.031,0.92 -0.708,1.682 -1.591,1.837 -1.017,0.196 -2.125,0.305 -3.287,0.305 -3.385,0 -6.329,-0.919 -7.819,-2.27 1.918,4.372 9.942,7.653 19.549,7.653 0.956,0 1.895,-0.031 2.815,-0.093 l 0.065,-0.003 c 0.513,0 0.927,0.415 0.927,0.927 0,0.451 -0.317,0.823 -0.741,0.908 -2.908,0.561 -6.082,0.871 -9.404,0.871 C 50.163,12.279 38.803,6.781 38.803,0 c 0,-6.781 11.36,-12.281 25.375,-12.281 3.322,0 6.496,0.309 9.404,0.87 0.424,0.086 0.741,0.458 0.741,0.907 0,0.513 -0.414,0.928 -0.927,0.928 l -0.065,-0.002 c -0.92,-0.062 -1.859,-0.095 -2.815,-0.095 -9.607,0 -17.631,3.283 -19.549,7.654 1.49,-1.351 4.434,-2.27 7.819,-2.27 1.162,0 2.27,0.109 3.287,0.305 0.883,0.155 1.56,0.917 1.591,1.837 0.032,0.713 0.047,1.427 0.047,2.147 z M 13.376,-13.387 c 8.844,0 16.015,-14.816 16.015,-33.091 0,-5.72 -0.702,-11.101 -1.937,-15.794 -0.268,-1 -1.103,-1.772 -2.132,-1.959 -3.989,-0.743 -7.983,-1.104 -11.945,-1.1 -3.961,-0.004 -7.953,0.357 -11.942,1.1 -1.03,0.187 -1.864,0.959 -2.132,1.959 -1.236,4.693 -1.938,10.074 -1.938,15.794 0,18.275 7.169,33.091 16.011,33.091 z m 0,-36.942 c -0.72,0 -1.43,0.016 -2.144,0.047 -0.919,0.032 -1.681,0.709 -1.836,1.593 -0.197,1.015 -0.305,2.125 -0.305,3.286 0,3.386 0.92,6.328 2.27,7.818 -4.372,-1.917 -7.654,-9.941 -7.654,-19.547 0,-0.957 0.032,-1.895 0.095,-2.816 l 0.002,-0.064 c 0,-0.513 -0.415,-0.928 -0.928,-0.928 -0.449,0 -0.822,0.316 -0.907,0.741 -0.561,2.908 -0.871,6.081 -0.871,9.404 0,14.015 5.498,25.375 12.278,25.375 6.782,0 12.282,-11.36 12.282,-25.375 0,-3.323 -0.309,-6.496 -0.871,-9.404 -0.085,-0.425 -0.457,-0.741 -0.907,-0.741 -0.512,0 -0.928,0.415 -0.928,0.928 l 0.003,0.064 c 0.063,0.921 0.094,1.859 0.094,2.816 0,9.606 -3.282,17.63 -7.654,19.547 1.351,-1.49 2.27,-4.432 2.27,-7.818 0,-1.161 -0.107,-2.271 -0.304,-3.286 -0.155,-0.884 -0.917,-1.561 -1.837,-1.593 -0.713,-0.031 -1.427,-0.047 -2.148,-0.047 z m 0,63.712 c 8.844,0 16.015,14.816 16.015,33.091 0,5.72 -0.702,11.102 -1.937,15.794 -0.268,1 -1.103,1.771 -2.132,1.959 -3.989,0.743 -7.983,1.103 -11.945,1.1 C 9.416,65.33 5.424,64.97 1.435,64.227 0.405,64.039 -0.429,63.268 -0.697,62.268 -1.933,57.576 -2.635,52.194 -2.635,46.474 c 0,-18.275 7.169,-33.091 16.011,-33.091 z m 0,36.943 c -0.72,0 -1.43,-0.017 -2.144,-0.047 C 10.313,50.246 9.551,49.569 9.396,48.686 9.199,47.669 9.091,46.56 9.091,45.4 c 0,-3.386 0.92,-6.328 2.27,-7.82 -4.372,1.917 -7.654,9.942 -7.654,19.548 0,0.957 0.032,1.896 0.095,2.816 l 0.002,0.065 c 0,0.512 -0.415,0.928 -0.928,0.928 -0.449,0 -0.822,-0.318 -0.907,-0.742 -0.561,-2.908 -0.871,-6.081 -0.871,-9.404 0,-14.014 5.498,-25.376 12.278,-25.376 6.782,0 12.282,11.362 12.282,25.376 0,3.323 -0.309,6.496 -0.871,9.404 -0.085,0.424 -0.457,0.742 -0.907,0.742 -0.512,0 -0.928,-0.416 -0.928,-0.928 l 0.003,-0.065 c 0.063,-0.92 0.094,-1.859 0.094,-2.816 0,-9.606 -3.282,-17.631 -7.654,-19.548 1.351,1.492 2.27,4.434 2.27,7.82 0,1.16 -0.107,2.269 -0.304,3.286 -0.155,0.883 -0.917,1.56 -1.837,1.593 -0.713,0.03 -1.427,0.047 -2.148,0.047"
         style="fill:#af8006;fill-opacity:1;fill-rule:evenodd;stroke:none"
         id="path54350" />
    </g>
    <g
       id="g54352"
       transform="translate(310.966,604.418)">
      <path
         d="m 0,0 c -2.976,-0.001 -5.388,-2.414 -5.387,-5.39 0,-2.976 2.412,-5.388 5.389,-5.388 2.975,0.001 5.387,2.413 5.386,5.389 C 5.388,-2.412 2.976,0 0,0 Z m -73.225,-73.226 c 0,2.976 2.413,5.388 5.389,5.387 2.976,0 5.389,-2.412 5.388,-5.389 0,-2.975 -2.413,-5.387 -5.389,-5.386 -2.977,0 -5.389,2.412 -5.388,5.388 z m 45.512,33.955 c 0,-10.422 17.461,-18.87 39.002,-18.87 2.11,0 4.181,0.08 6.202,0.238 0.037,0.003 0.074,0.004 0.111,0.004 0.748,0 1.353,-0.606 1.353,-1.353 0,-0.173 -0.026,-0.333 -0.086,-0.485 -1.024,-2.644 -2.249,-5.195 -3.642,-7.629 1.694,-1.156 3.386,-2.446 5.06,-3.861 0.615,-0.496 1.008,-1.255 1.008,-2.106 0,-0.548 -0.16,-1.059 -0.441,-1.484 -2.513,-3.895 -5.411,-7.465 -8.616,-10.673 -3.207,-3.204 -6.777,-6.102 -10.672,-8.617 -0.426,-0.279 -0.937,-0.44 -1.485,-0.44 -0.852,0 -1.611,0.395 -2.107,1.008 -1.413,1.675 -2.704,3.367 -3.859,5.06 -2.434,-1.393 -4.986,-2.616 -7.629,-3.641 -0.152,-0.059 -0.312,-0.087 -0.486,-0.087 -0.747,0 -1.352,0.605 -1.352,1.353 0,0.038 10e-4,0.076 0.004,0.112 0.156,2.02 0.237,4.091 0.237,6.202 0,21.541 -8.447,39.002 -18.87,39.002 -10.421,0 -18.87,-17.461 -18.87,-39.001 0,-2.111 0.081,-4.182 0.238,-6.202 0.002,-0.037 0.004,-0.074 0.004,-0.113 0,-0.747 -0.606,-1.352 -1.353,-1.352 -0.173,0 -0.333,0.027 -0.485,0.087 -2.643,1.024 -5.195,2.248 -7.629,3.641 -1.156,-1.693 -2.446,-3.386 -3.86,-5.06 -0.496,-0.614 -1.255,-1.008 -2.106,-1.008 -0.548,0 -1.06,0.16 -1.485,0.44 -3.895,2.515 -7.466,5.412 -10.673,8.617 -3.204,3.207 -6.102,6.777 -8.616,10.672 -0.28,0.425 -0.44,0.937 -0.44,1.485 0,0.851 0.393,1.61 1.008,2.106 1.674,1.414 3.366,2.705 5.059,3.86 -1.393,2.434 -2.616,4.986 -3.641,7.629 -0.059,0.152 -0.087,0.312 -0.087,0.486 0,0.746 0.606,1.353 1.353,1.353 0.038,0 0.075,-10e-4 0.112,-0.005 2.02,-0.157 4.091,-0.237 6.202,-0.237 21.54,0 39.002,8.448 39.002,18.869 0,10.422 -17.461,18.87 -39.001,18.87 -2.111,0 -4.182,-0.081 -6.203,-0.237 -0.036,-0.004 -0.074,-0.005 -0.112,-0.005 -0.747,0 -1.352,0.606 -1.352,1.353 0,0.174 0.027,0.333 0.086,0.486 1.025,2.643 2.249,5.194 3.641,7.628 -1.692,1.156 -3.385,2.446 -5.059,3.861 -0.614,0.496 -1.008,1.254 -1.008,2.106 0,0.548 0.16,1.06 0.44,1.485 2.515,3.895 5.412,7.465 8.617,10.672 3.207,3.204 6.777,6.102 10.672,8.616 0.426,0.281 0.937,0.441 1.485,0.441 0.851,0 1.61,-0.394 2.106,-1.008 1.414,-1.675 2.705,-3.367 3.86,-5.061 2.434,1.394 4.986,2.618 7.629,3.642 0.152,0.06 0.313,0.087 0.485,0.087 0.747,0 1.353,-0.605 1.353,-1.353 0,-0.038 -0.002,-0.075 -0.004,-0.112 -0.157,-2.019 -0.237,-4.091 -0.237,-6.202 0,-21.54 8.447,-39.001 18.869,-39.001 10.422,0 18.87,17.461 18.87,39.001 0,2.112 -0.081,4.183 -0.237,6.202 -0.003,0.037 -0.005,0.074 -0.005,0.113 0,0.747 0.606,1.352 1.353,1.352 0.173,0 0.333,-0.027 0.486,-0.086 2.643,-1.025 5.194,-2.248 7.629,-3.642 1.155,1.694 2.445,3.386 3.859,5.06 0.496,0.615 1.255,1.008 2.107,1.008 0.548,0 1.059,-0.16 1.485,-0.441 3.895,-2.513 7.465,-5.411 10.672,-8.616 3.205,-3.207 6.102,-6.777 8.616,-10.672 0.281,-0.425 0.441,-0.937 0.441,-1.484 0,-0.853 -0.394,-1.611 -1.008,-2.107 -1.675,-1.414 -3.366,-2.705 -5.061,-3.86 1.394,-2.434 2.618,-4.986 3.643,-7.629 0.059,-0.152 0.086,-0.312 0.086,-0.485 0,-0.747 -0.605,-1.353 -1.353,-1.353 -0.037,0 -0.075,0.001 -0.112,0.004 -2.02,0.156 -4.091,0.238 -6.202,0.238 -21.54,0 -39.001,-8.449 -39.001,-18.871 z M 0,-78.511 c -2.976,0 -5.387,2.413 -5.387,5.389 0,2.976 2.412,5.389 5.389,5.389 2.975,0 5.387,-2.414 5.386,-5.39 0,-2.976 -2.412,-5.388 -5.388,-5.388 z m -73.225,73.225 c 0,-2.975 2.413,-5.387 5.389,-5.387 2.976,0 5.389,2.412 5.389,5.389 -10e-4,2.975 -2.414,5.387 -5.39,5.386 -2.976,0 -5.388,-2.412 -5.388,-5.388"
         style="fill:#5f7110;fill-opacity:1;fill-rule:evenodd;stroke:none"
         id="path54354" />
    </g>
    <g
       id="g54356"
       transform="translate(308.502,148.759)">
      <path
         d="m 0,0 h -13.866 v -1.25 c 0.972,-0.523 1.459,-1.397 1.459,-2.706 0,-2.967 -1.947,-7.68 -1.947,-13.965 0,-14.923 10.867,-25.833 25.626,-25.833 15.489,0 23.113,12.568 23.113,24.612 0,9.601 -4.623,17.543 -12.003,20.859 L 21.247,0.408 c 6.812,-3.753 10.217,-9.6 10.217,-17.455 0,-11.258 -9.162,-19.027 -23.112,-19.027 -11.919,0 -20.921,6.459 -20.921,18.502 0,8.642 3.811,13.79 12.569,16.234 L 0,0"
         style="fill:#4d2005;fill-opacity:1;fill-rule:evenodd;stroke:none"
         id="path54358" />
    </g>
    <g
       id="g54360"
       transform="translate(308.502,148.759)">
      <path
         d="m 0,0 h -13.866 v -1.25 c 0.972,-0.523 1.459,-1.397 1.459,-2.706 0,-2.967 -1.947,-7.68 -1.947,-13.965 0,-14.923 10.867,-25.833 25.626,-25.833 15.489,0 23.113,12.568 23.113,24.612 0,9.601 -4.623,17.543 -12.003,20.859 L 21.247,0.408 c 6.812,-3.753 10.217,-9.6 10.217,-17.455 0,-11.258 -9.162,-19.027 -23.112,-19.027 -11.919,0 -20.921,6.459 -20.921,18.502 0,8.642 3.811,13.79 12.569,16.234 z"
         style="fill:none;stroke:#4d2005;stroke-width:1.592;stroke-linecap:butt;stroke-linejoin:miter;stroke-miterlimit:3.864;stroke-dasharray:none;stroke-opacity:1"
         id="path54362" />
    </g>
    <g
       id="g54364"
       transform="translate(319.128,189.912)">
      <path
         d="m 0,0 c -7.884,0 -11.545,-5.961 -11.545,-11.92 0,-4.648 1.783,-7.982 6.665,-12.528 h -23.696 v -1.717 l 1.127,-10.619 h 1.595 c 0,5.052 0.658,5.467 4.975,5.467 h 35.522 c 5.351,0 6.29,-0.113 6.384,-5.467 h 1.595 v 17.399 h -1.595 c 0,-4.446 -1.033,-5.063 -4.507,-5.063 H -1.689 c -4.506,3.436 -6.29,6.365 -6.29,10.405 0,4.346 2.817,7.174 7.229,7.174 h 16.426 c 4.318,0 5.351,-0.213 5.351,-5.063 h 1.595 V 4.861 H 21.027 C 21.027,0.112 19.712,0 14.643,0 Z m -0.261,106 c -8.542,0 -11.263,-7.071 -11.263,-12.122 0,-4.85 2.534,-9.396 7.509,-13.234 -5.068,-1.819 -7.509,-6.465 -7.509,-11.214 0,-4.748 2.721,-9.8 6.946,-12.728 V 56.5 h -6.946 v -1.718 l 1.033,-11.427 h 1.595 v 1.325 c 0,3.232 1.22,4.949 4.881,4.949 h 19.711 c 4.976,0 5.352,-0.919 5.352,-5.163 h 1.595 v 17.197 h -1.502 c 0,-4.546 -1.22,-5.163 -4.599,-5.163 H -1.574 c -3.755,2.323 -6.384,6.263 -6.384,10.303 0,3.84 2.254,7.578 7.228,7.578 h 15.394 c 5.914,0 6.384,-0.213 6.384,-5.063 h 1.595 v 16.995 h -1.595 c 0,-4.85 -1.315,-5.063 -4.787,-5.063 H -1.574 c -4.411,3.132 -6.384,6.263 -6.384,10.103 0,4.748 2.536,7.778 6.852,7.778 h 15.77 c 5.445,0 6.384,-0.111 6.384,-5.163 h 1.595 v 17.197 h -1.595 c 0,-4.85 -1.221,-5.165 -4.6,-5.165 z m 3.265,62.111 -7.884,9.296 c -2.816,3.232 -4.037,6.465 -4.037,9.799 v 0.819 h -1.596 v -17.702 h 1.596 c 0.093,5.759 3.286,4.457 6.476,0.719 l 8.074,-9.496 16.989,18.488 v 10.82 h -1.595 c -0.188,-3.537 -1.128,-4.558 -4.224,-7.892 z m -31.58,-6.667 v -1.716 l 1.127,-10.619 h 1.595 c 0,5.353 0.658,5.467 4.506,5.467 h 35.991 c 5.445,0 6.29,-0.012 6.384,-5.467 h 1.595 v 17.398 h -1.595 c 0,-4.546 -0.845,-5.063 -4.694,-5.063 z m 6.73,76.662 v -1.717 c 5.727,-3.032 9.763,-7.073 12.016,-11.92 h 1.596 v 6.766 h 22.246 c 5.725,0 9.668,4.244 9.668,10.305 0,4.042 -1.878,7.68 -5.538,10.811 l -1.221,-1.111 c 2.253,-2.124 3.192,-4.043 3.192,-6.67 0,-3.939 -2.347,-6.464 -6.946,-6.464 H -8.234 v 12.425 h -2.441 V 238.106 Z M 0.68,282.111 c -9.013,0 -12.204,-6.97 -12.204,-12.931 0,-6.465 4.037,-11.719 10.231,-13.236 l 0.47,1.819 c -4.787,1.514 -7.135,5.456 -7.135,9.498 0,5.051 3.38,7.98 8.073,7.98 h 2.44 c 3.193,-5.859 2.816,-19.801 12.298,-19.801 4.88,0 8.823,4.647 8.823,10.204 0,3.738 -1.127,6.06 -4.694,9.597 3.286,1.213 4.694,3.031 4.694,6.061 0,4.042 -2.628,6.669 -6.759,6.971 v -1.718 c 2.347,-0.808 3.192,-1.313 3.192,-2.424 0,-1.615 -1.314,-2.02 -5.163,-2.02 z m 15.204,-6.87 c 2.816,-1.414 4.225,-5.254 4.225,-7.375 0,-2.929 -2.722,-5.456 -6.101,-5.456 -6.759,0 -6.664,6.061 -9.387,12.831 z m 2.259,-53.201 -1.233,-1.397 c 3.115,-3.419 4.138,-5.845 4.138,-9.786 0,-4.85 -3.756,-14.447 -18.681,-14.246 v 26.267 c -7.696,0.505 -13.891,-7.172 -13.891,-15.456 0,-10.103 7.885,-17.983 17.928,-17.983 10.044,0 17.272,8.082 17.272,19.296 0,5.567 -1.563,9.458 -5.533,13.305 z M 0.771,196.611 c -6.193,0.405 -10.325,3.941 -10.325,9.902 0,4.546 3.004,9.899 10.325,9.597 z m 17.372,-50.999 -1.233,-1.398 c 3.115,-3.418 4.138,-5.843 4.138,-9.785 0,-4.85 -3.756,-14.447 -18.681,-14.245 v 26.267 c -7.696,0.504 -13.891,-7.173 -13.891,-15.457 0,-10.103 7.885,-17.983 17.928,-17.983 10.044,0 17.272,8.082 17.272,19.297 0,5.566 -1.563,9.458 -5.533,13.304 z M 0.771,120.184 c -6.193,0.403 -10.325,3.94 -10.325,9.901 0,4.545 3.004,9.899 10.325,9.597 z M 18.143,39.641 16.91,38.243 c 3.115,-3.418 4.138,-5.843 4.138,-9.785 0,-4.85 -3.756,-14.447 -18.681,-14.245 V 40.48 c -7.696,0.504 -13.891,-7.173 -13.891,-15.457 0,-10.103 7.885,-17.983 17.928,-17.983 10.044,0 17.272,8.082 17.272,19.296 0,5.567 -1.563,9.458 -5.533,13.305 z M 0.771,14.213 c -6.193,0.404 -10.325,3.94 -10.325,9.901 0,4.546 3.004,9.899 10.325,9.597 V 14.213"
         style="fill:#4d2005;fill-opacity:1;fill-rule:evenodd;stroke:none"
         id="path54366" />
    </g>
    <g
       id="g54368"
       transform="translate(319.128,189.912)">
      <path
         d="m 0,0 c -7.884,0 -11.545,-5.961 -11.545,-11.92 0,-4.648 1.783,-7.982 6.665,-12.528 h -23.696 v -1.717 l 1.127,-10.619 h 1.595 c 0,5.052 0.658,5.467 4.975,5.467 h 35.522 c 5.351,0 6.29,-0.113 6.384,-5.467 h 1.595 v 17.399 h -1.595 c 0,-4.446 -1.033,-5.063 -4.507,-5.063 H -1.689 c -4.506,3.436 -6.29,6.365 -6.29,10.405 0,4.346 2.817,7.174 7.229,7.174 h 16.426 c 4.318,0 5.351,-0.213 5.351,-5.063 h 1.595 V 4.861 H 21.027 C 21.027,0.112 19.712,0 14.643,0 Z"
         style="fill:none;stroke:#4d2005;stroke-width:1.194;stroke-linecap:butt;stroke-linejoin:miter;stroke-miterlimit:3.864;stroke-dasharray:none;stroke-opacity:1"
         id="path54370" />
      <g
         id="g54372"
         transform="translate(-0.261,106)">
        <path
           d="m 0,0 c -8.542,0 -11.263,-7.071 -11.263,-12.122 0,-4.85 2.534,-9.396 7.509,-13.234 -5.068,-1.819 -7.509,-6.465 -7.509,-11.214 0,-4.748 2.721,-9.8 6.946,-12.728 V -49.5 h -6.946 v -1.718 l 1.033,-11.427 h 1.595 v 1.325 c 0,3.232 1.22,4.949 4.881,4.949 h 19.711 c 4.976,0 5.352,-0.919 5.352,-5.163 h 1.595 v 17.197 h -1.502 c 0,-4.546 -1.22,-5.163 -4.599,-5.163 H -1.313 c -3.755,2.323 -6.384,6.263 -6.384,10.303 0,3.84 2.254,7.578 7.228,7.578 h 15.394 c 5.914,0 6.384,-0.213 6.384,-5.063 h 1.595 v 16.995 h -1.595 c 0,-4.85 -1.315,-5.063 -4.787,-5.063 H -1.313 c -4.411,3.132 -6.384,6.263 -6.384,10.103 0,4.748 2.536,7.778 6.852,7.778 h 15.77 c 5.445,0 6.384,-0.111 6.384,-5.163 h 1.595 V 5.165 H 21.309 C 21.309,0.315 20.088,0 16.709,0 Z"
           style="fill:none;stroke:#4d2005;stroke-width:1.194;stroke-linecap:butt;stroke-linejoin:miter;stroke-miterlimit:3.864;stroke-dasharray:none;stroke-opacity:1"
           id="path54374" />
        <g
           id="g54376"
           transform="translate(3.265,62.111)">
          <path
             d="m 0,0 -7.884,9.296 c -2.816,3.232 -4.037,6.465 -4.037,9.799 v 0.819 h -1.596 V 2.212 h 1.596 c 0.093,5.759 3.286,4.457 6.476,0.719 l 8.074,-9.496 16.989,18.488 v 10.82 h -1.595 c -0.188,-3.537 -1.128,-4.558 -4.224,-7.892 z"
             style="fill:none;stroke:#4d2005;stroke-width:1.194;stroke-linecap:butt;stroke-linejoin:miter;stroke-miterlimit:3.864;stroke-dasharray:none;stroke-opacity:1"
             id="path54378" />
          <g
             id="g54380"
             transform="translate(-31.58,-6.667)">
            <path
               d="m 0,0 v -1.716 l 1.127,-10.619 h 1.595 c 0,5.353 0.658,5.467 4.506,5.467 h 35.991 c 5.445,0 6.29,-0.012 6.384,-5.467 h 1.595 V 5.063 H 49.603 C 49.603,0.517 48.758,0 44.909,0 Z"
               style="fill:none;stroke:#4d2005;stroke-width:1.194;stroke-linecap:butt;stroke-linejoin:miter;stroke-miterlimit:3.864;stroke-dasharray:none;stroke-opacity:1"
               id="path54382" />
            <g
               id="g54384"
               transform="translate(6.73,76.662)">
              <path
                 d="m 0,0 v -1.717 c 5.727,-3.032 9.763,-7.073 12.016,-11.92 h 1.596 v 6.766 h 22.246 c 5.725,0 9.668,4.244 9.668,10.305 0,4.042 -1.878,7.679 -5.538,10.811 L 38.767,13.133 C 41.02,11.01 41.959,9.091 41.959,6.464 41.959,2.525 39.612,0 35.013,0 H 13.612 V 12.425 H 11.171 V 0 Z"
                 style="fill:none;stroke:#4d2005;stroke-width:1.194;stroke-linecap:butt;stroke-linejoin:miter;stroke-miterlimit:3.864;stroke-dasharray:none;stroke-opacity:1"
                 id="path54386" />
              <g
                 id="g54388"
                 transform="translate(22.526,44.004)">
                <path
                   d="m 0,0 c -9.013,0 -12.204,-6.97 -12.204,-12.931 0,-6.465 4.037,-11.719 10.231,-13.235 l 0.47,1.818 c -4.787,1.515 -7.135,5.456 -7.135,9.498 0,5.051 3.38,7.98 8.073,7.98 h 2.44 c 3.193,-5.859 2.816,-19.8 12.298,-19.8 4.88,0 8.823,4.647 8.823,10.203 0,3.738 -1.127,6.06 -4.694,9.597 3.286,1.213 4.694,3.031 4.694,6.061 0,4.042 -2.628,6.669 -6.759,6.971 V 4.444 C 18.584,3.636 19.429,3.131 19.429,2.02 19.429,0.405 18.115,0 14.266,0 Z"
                   style="fill:none;stroke:#4d2005;stroke-width:1.194;stroke-linecap:butt;stroke-linejoin:miter;stroke-miterlimit:3.864;stroke-dasharray:none;stroke-opacity:1"
                   id="path54390" />
                <g
                   id="g54392"
                   transform="translate(15.204,-6.87)">
                  <path
                     d="m 0,0 c 2.816,-1.414 4.225,-5.254 4.225,-7.375 0,-2.929 -2.722,-5.455 -6.101,-5.455 -6.759,0 -6.664,6.061 -9.387,12.83 z"
                     style="fill:none;stroke:#4d2005;stroke-width:1.194;stroke-linecap:butt;stroke-linejoin:miter;stroke-miterlimit:3.864;stroke-dasharray:none;stroke-opacity:1"
                     id="path54394" />
                  <g
                     id="g54396"
                     transform="translate(2.259,-53.2)">
                    <path
                       d="m 0,0 -1.233,-1.397 c 3.115,-3.419 4.138,-5.845 4.138,-9.786 0,-4.85 -3.756,-14.447 -18.681,-14.246 V 0.838 c -7.696,0.505 -13.891,-7.172 -13.891,-15.456 0,-10.103 7.885,-17.983 17.928,-17.983 10.044,0 17.272,8.082 17.272,19.296 C 5.533,-7.738 3.97,-3.847 0,0 Z"
                       style="fill:none;stroke:#4d2005;stroke-width:1.194;stroke-linecap:butt;stroke-linejoin:miter;stroke-miterlimit:3.864;stroke-dasharray:none;stroke-opacity:1"
                       id="path54398" />
                    <g
                       id="g54400"
                       transform="translate(-17.372,-25.429)">
                      <path
                         d="m 0,0 c -6.193,0.405 -10.325,3.941 -10.325,9.902 0,4.546 3.004,9.899 10.325,9.597 z"
                         style="fill:none;stroke:#4d2005;stroke-width:1.194;stroke-linecap:butt;stroke-linejoin:miter;stroke-miterlimit:3.864;stroke-dasharray:none;stroke-opacity:1"
                         id="path54402" />
                      <g
                         id="g54404"
                         transform="translate(17.372,-50.999)">
                        <path
                           d="m 0,0 -1.233,-1.398 c 3.115,-3.418 4.138,-5.843 4.138,-9.785 0,-4.85 -3.756,-14.447 -18.681,-14.245 V 0.839 c -7.696,0.504 -13.891,-7.173 -13.891,-15.457 0,-10.103 7.885,-17.983 17.928,-17.983 10.044,0 17.272,8.082 17.272,19.297 C 5.533,-7.738 3.97,-3.846 0,0 Z"
                           style="fill:none;stroke:#4d2005;stroke-width:1.194;stroke-linecap:butt;stroke-linejoin:miter;stroke-miterlimit:3.864;stroke-dasharray:none;stroke-opacity:1"
                           id="path54406" />
                        <g
                           id="g54408"
                           transform="translate(-17.372,-25.428)">
                          <path
                             d="m 0,0 c -6.193,0.403 -10.325,3.94 -10.325,9.901 0,4.545 3.004,9.899 10.325,9.597 z"
                             style="fill:none;stroke:#4d2005;stroke-width:1.194;stroke-linecap:butt;stroke-linejoin:miter;stroke-miterlimit:3.864;stroke-dasharray:none;stroke-opacity:1"
                             id="path54410" />
                          <g
                             id="g54412"
                             transform="translate(17.372,-80.543)">
                            <path
                               d="m 0,0 -1.233,-1.398 c 3.115,-3.418 4.138,-5.843 4.138,-9.785 0,-4.85 -3.756,-14.447 -18.681,-14.245 V 0.839 c -7.696,0.504 -13.891,-7.173 -13.891,-15.457 0,-10.103 7.885,-17.983 17.928,-17.983 10.044,0 17.272,8.082 17.272,19.296 C 5.533,-7.738 3.97,-3.847 0,0 Z"
                               style="fill:none;stroke:#4d2005;stroke-width:1.194;stroke-linecap:butt;stroke-linejoin:miter;stroke-miterlimit:3.864;stroke-dasharray:none;stroke-opacity:1"
                               id="path54414" />
                            <g
                               id="g54416"
                               transform="translate(-17.372,-25.428)">
                              <path
                                 d="m 0,0 c -6.193,0.404 -10.325,3.94 -10.325,9.901 0,4.546 3.004,9.899 10.325,9.597 z"
                                 style="fill:none;stroke:#4d2005;stroke-width:1.194;stroke-linecap:butt;stroke-linejoin:miter;stroke-miterlimit:3.864;stroke-dasharray:none;stroke-opacity:1"
                                 id="path54418" />
                            </g>
                          </g>
                        </g>
                      </g>
                    </g>
                  </g>
                </g>
              </g>
            </g>
          </g>
        </g>
      </g>
    </g>
    <g
       id="g54420"
       transform="translate(367.364,302.472)">
      <path
         d="m 0,0 c -2.898,-2.341 -4.125,-6.009 -4.125,-9.755 0,-8.193 6.094,-14.046 13.822,-14.046 7.99,0 13.825,6.126 13.825,14.046 0,4.409 -1.45,7.999 -4.609,10.457 l -1.969,-2.458 c 2.378,-1.951 3.678,-4.643 3.678,-7.999 0,-6.203 -4.83,-10.534 -10.925,-10.534 -5.758,0 -10.923,4.37 -10.923,10.534 0,2.654 1.077,5.268 3.195,6.907 L 0,0"
         style="fill:#4d2005;fill-opacity:1;fill-rule:evenodd;stroke:none"
         id="path54422" />
    </g>
    <g
       id="g54424"
       transform="translate(381.522,308.343)">
      <path
         d="m 0,0 c -3.643,0 -6.466,2.537 -6.466,6.477 0,3.941 2.823,6.477 6.466,6.477 3.64,0 6.464,-2.536 6.464,-6.477 C 6.464,2.537 3.64,0 0,0 Z m 0,-3.277 c 5.424,0 9.14,4.136 9.14,9.754 0,5.618 -3.716,9.754 -9.14,9.754 -5.426,0 -9.141,-4.136 -9.141,-9.754 0,-5.618 3.715,-9.754 9.141,-9.754"
         style="fill:#4d2005;fill-opacity:1;fill-rule:evenodd;stroke:none"
         id="path54426" />
    </g>
    <g
       id="g54428"
       transform="translate(390.216,328.223)">
      <path
         d="m 0,0 v 3.043 h -8.472 c -3.975,0 -6.688,1.716 -6.688,5.657 0,2.497 1.486,3.512 5.313,3.512 H 0 v 3.043 h -10.033 c -3.122,0 -5.127,2.146 -5.127,4.721 0,3.55 2.341,4.447 4.755,4.447 H 0 v 3.044 h -10.552 c -4.497,0 -7.283,-1.717 -7.283,-6.945 0,-2.77 1.263,-4.448 3.305,-5.774 -1.188,-0.586 -3.305,-1.834 -3.305,-5.775 0,-3.004 1.598,-5.267 3.305,-6.087 V 2.808 c -0.965,0 -1.93,-0.077 -2.86,-0.077 v -2.887 c 1.153,0 2.528,0.156 4.124,0.156 L 0,0"
         style="fill:#4d2005;fill-opacity:1;fill-rule:evenodd;stroke:none"
         id="path54430" />
    </g>
    <g
       id="g54432"
       transform="translate(390.216,360.392)">
      <path
         d="m 0,0 v 3.042 h -8.472 c -3.975,0 -6.688,1.717 -6.688,5.658 0,2.497 1.486,3.511 5.313,3.511 H 0 v 3.043 h -10.033 c -3.122,0 -5.127,2.147 -5.127,4.722 0,3.55 2.341,4.447 4.755,4.447 H 0 v 3.044 h -10.552 c -4.497,0 -7.283,-1.717 -7.283,-6.945 0,-2.77 1.263,-4.448 3.305,-5.775 -1.188,-0.585 -3.305,-1.833 -3.305,-5.774 0,-3.004 1.598,-5.267 3.305,-6.087 V 2.808 c -0.965,0 -1.93,-0.078 -2.86,-0.078 v -2.887 c 1.153,0 2.528,0.157 4.124,0.157 L 0,0"
         style="fill:#4d2005;fill-opacity:1;fill-rule:evenodd;stroke:none"
         id="path54434" />
    </g>
    <g
       id="g54436"
       transform="translate(372.826,408.478)">
      <path
         d="m 0,0 v -3.042 h 8.472 c 3.976,0 6.688,-1.717 6.688,-5.658 0,-2.848 -1.82,-4.175 -4.718,-4.175 H 0 v -3.043 h 10.74 c 4.199,0 7.096,2.146 7.096,6.945 0,3.004 -1.598,5.267 -3.308,6.087 v 0.078 c 0.967,0 1.933,0.077 2.862,0.077 V 0.157 C 16.238,0.157 14.865,0 13.266,0 H 0"
         style="fill:#4d2005;fill-opacity:1;fill-rule:evenodd;stroke:none"
         id="path54438" />
    </g>
    <g
       id="g54440"
       transform="translate(390.216,413.181)">
      <path
         d="m 0,0 v 3.043 h -8.472 c -3.975,0 -6.688,1.716 -6.688,5.657 0,2.848 1.821,4.175 4.718,4.175 H 0 v 3.043 h -10.738 c -4.2,0 -7.097,-2.146 -7.097,-6.945 0,-3.004 1.598,-5.267 3.305,-6.087 V 2.808 c -0.965,0 -1.93,-0.078 -2.86,-0.078 v -2.887 c 1.153,0 2.528,0.157 4.124,0.157 L 0,0"
         style="fill:#4d2005;fill-opacity:1;fill-rule:evenodd;stroke:none"
         id="path54442" />
    </g>
    <g
       id="g54444"
       transform="translate(366.026,433.371)">
      <path
         d="M 0,0 C 1.227,0 2.119,0.937 2.119,2.224 2.119,3.512 1.227,4.448 0,4.448 -1.152,4.448 -2.118,3.473 -2.118,2.224 -2.118,0.976 -1.152,0 0,0 Z M 6.8,0.703 H 24.19 V 3.746 H 6.8 Z"
         style="fill:#4d2005;fill-opacity:1;fill-rule:evenodd;stroke:none"
         id="path54446" />
    </g>
    <g
       id="g54448"
       transform="translate(372.826,452.08)">
      <path
         d="M 0,0 V -5.385 H -4.942 V -8.428 H 0 v -3.979 h 2.452 v 3.979 h 9.55 c 3.605,0 5.834,0.702 5.834,5.033 0,1.131 -0.185,2.498 -0.632,3.551 L 14.566,0.038 c 0.409,-0.819 0.594,-1.794 0.594,-2.691 0,-2.693 -1.783,-2.732 -4.012,-2.732 H 2.452 V 0 H 0"
         style="fill:#4d2005;fill-opacity:1;fill-rule:evenodd;stroke:none"
         id="path54450" />
    </g>
    <g
       id="g54452"
       transform="translate(372.826,471.203)">
      <path
         d="M 0,0 V -3.317 L 13.638,-8.74 V -8.818 L 0,-14.475 v -3.551 l 17.502,7.569 3.27,-1.249 c 1.709,-0.662 2.861,-1.404 2.861,-3.394 0,-0.858 -0.074,-1.521 -0.298,-2.146 l 2.528,-0.39 c 0.372,0.82 0.445,1.872 0.445,2.731 0,3.668 -2.006,4.877 -4.943,6.087 L 0,0"
         style="fill:#4d2005;fill-opacity:1;fill-rule:evenodd;stroke:none"
         id="path54454" />
    </g>
    <g
       id="g54456"
       transform="translate(367.364,502.674)">
      <path
         d="m 0,0 c -2.898,-2.342 -4.125,-6.009 -4.125,-9.755 0,-8.193 6.094,-14.046 13.822,-14.046 7.99,0 13.825,6.126 13.825,14.046 0,4.409 -1.45,7.998 -4.609,10.456 l -1.969,-2.458 c 2.378,-1.95 3.678,-4.643 3.678,-7.998 0,-6.203 -4.83,-10.535 -10.925,-10.535 -5.758,0 -10.923,4.37 -10.923,10.535 0,2.653 1.077,5.267 3.195,6.906 L 0,0"
         style="fill:#4d2005;fill-opacity:1;fill-rule:evenodd;stroke:none"
         id="path54458" />
    </g>
    <g
       id="g54460"
       transform="translate(381.522,508.545)">
      <path
         d="m 0,0 c -3.643,0 -6.466,2.536 -6.466,6.477 0,3.94 2.823,6.477 6.466,6.477 3.64,0 6.464,-2.537 6.464,-6.477 C 6.464,2.536 3.64,0 0,0 Z m 0,-3.277 c 5.424,0 9.14,4.135 9.14,9.754 0,5.618 -3.716,9.754 -9.14,9.754 -5.426,0 -9.141,-4.136 -9.141,-9.754 0,-5.619 3.715,-9.754 9.141,-9.754"
         style="fill:#4d2005;fill-opacity:1;fill-rule:evenodd;stroke:none"
         id="path54462" />
    </g>
    <path
       d="m 362.124,527.774 h 28.092 v 3.044 h -28.092 z"
       style="fill:#4d2005;fill-opacity:1;fill-rule:nonzero;stroke:none"
       id="path54464" />
    <path
       d="m 362.124,536.065 h 28.092 v 3.044 h -28.092 z"
       style="fill:#4d2005;fill-opacity:1;fill-rule:nonzero;stroke:none"
       id="path54466" />
    <g
       id="g54468"
       transform="translate(379.961,546.308)">
      <path
         d="m 0,0 c -2.936,0.39 -4.905,2.613 -4.905,5.968 0,3.356 1.969,5.385 4.905,5.502 z M 5.388,11.783 C 7.134,10.339 8.025,8.583 8.025,5.968 8.025,2.653 5.462,0.233 2.451,0 V 14.748 H 1.522 c -5.758,0 -9.102,-3.512 -9.102,-8.662 0,-5.384 3.752,-9.364 9.141,-9.364 5.052,0 9.14,3.511 9.14,9.246 0,3.395 -0.967,5.971 -3.604,8.117 L 5.388,11.783"
         style="fill:#4d2005;fill-opacity:1;fill-rule:evenodd;stroke:none"
         id="path54470" />
    </g>
    <g
       id="g54472"
       transform="translate(381.522,566.928)">
      <path
         d="m 0,0 c -3.643,0 -6.466,2.614 -6.466,6.437 0,3.863 2.638,6.517 6.391,6.517 3.344,0 6.318,-2.341 6.318,-6.517 C 6.243,2.887 3.529,0 0,0 Z m -8.696,15.997 v -3.043 h 2.973 v -0.079 c -2.304,-1.209 -3.418,-3.98 -3.418,-6.438 0,-5.813 3.455,-9.715 9.141,-9.715 5.127,0 8.917,3.98 8.917,9.715 0,2.419 -1.003,4.994 -3.232,6.438 v 0.079 h 2.229 c 3.679,0 7.023,-1.445 7.023,-6.907 0,-2.809 -1.04,-4.876 -3.01,-6.789 l 2.378,-2.185 c 2.416,2.576 3.307,5.424 3.307,8.974 0,6.399 -3.418,9.95 -9.698,9.95 h -16.61"
         style="fill:#4d2005;fill-opacity:1;fill-rule:evenodd;stroke:none"
         id="path54474" />
    </g>
    <g
       id="g54476"
       transform="translate(379.961,589.694)">
      <path
         d="m 0,0 c -2.936,0.391 -4.905,2.614 -4.905,5.969 0,3.356 1.969,5.385 4.905,5.502 z M 5.388,11.783 C 7.134,10.339 8.025,8.583 8.025,5.969 8.025,2.653 5.462,0.234 2.451,0 V 14.748 H 1.522 c -5.758,0 -9.102,-3.511 -9.102,-8.662 0,-5.384 3.752,-9.364 9.141,-9.364 5.052,0 9.14,3.512 9.14,9.247 0,3.395 -0.967,5.97 -3.604,8.115 L 5.388,11.783"
         style="fill:#4d2005;fill-opacity:1;fill-rule:evenodd;stroke:none"
         id="path54478" />
    </g>
    <g
       id="g54480"
       transform="translate(232.589,178.456)">
      <path
         d="m 0,0 v 4.049 l 26.905,-5.616 v -2.612 l 1.088,-0.218 V 7.488 c 0,10.883 -8.011,17.762 -16.586,17.762 -8.359,0 -12.495,-4.789 -12.495,-13.104 V 0.218 Z m 0,9.49 v 2.09 c 0,5.442 1.219,8.141 7.271,8.141 3.613,0 9.316,-0.958 13.887,-3.047 4.571,-2.09 5.747,-4.223 5.747,-9.361 V 3.831 L 0,9.49"
         style="fill:#af8006;fill-opacity:1;fill-rule:evenodd;stroke:none"
         id="path54482" />
    </g>
    <g
       id="g54484"
       transform="translate(234.679,216.327)">
      <path
         d="m 0,0 c -1.35,0 -2.481,-1.262 -2.481,-2.525 0,-1.262 1.175,-2.481 2.481,-2.481 1.35,0 2.525,1.132 2.525,2.481 C 2.525,-1.175 1.393,0 0,0 Z M 9.752,-6.356 20.94,-8.925 c 1.132,-0.261 2.22,-0.348 2.612,-0.348 2.002,0 2.786,1.393 3.004,3.135 0.174,1.523 -0.566,3.178 -1.698,4.223 -1.393,1.262 -3.004,2.176 -4.702,3.003 L 19.808,0.131 c 1.393,-0.827 4.832,-2.308 4.832,-4.18 0,-0.609 -0.304,-0.957 -0.957,-0.957 -0.479,0 -1.742,0.391 -2.656,0.609 L 8.49,-1.48 c 0,-1.35 0.173,-2.656 0.173,-4.005 v -4.006 l 1.089,-0.304 v 3.439"
         style="fill:#af8006;fill-opacity:1;fill-rule:evenodd;stroke:none"
         id="path54486" />
    </g>
    <g
       id="g54488"
       transform="translate(255.445,231.253)">
      <path
         d="m 0,0 c -5.485,0 -6.269,-7.314 -9.23,-7.314 -1.524,0 -2.046,1.829 -2.046,3.048 0,0.566 0,1.872 0.784,1.915 0.61,-0.13 0.958,-0.566 1.611,-0.566 0.827,0 1.567,0.827 1.567,1.655 0,1.349 -0.783,2.002 -2.133,2.002 -1.523,0 -2.916,-2.264 -2.916,-5.006 0,-3.135 1.959,-6.269 5.441,-6.269 4.179,0 5.529,7.357 8.924,7.357 2.09,0 2.699,-2.22 2.699,-3.962 0.131,-0.653 -0.217,-2.656 -1.131,-2.656 -0.392,0 -1.089,0.828 -1.829,0.828 -1.175,0 -2.046,-0.74 -2.046,-1.915 0,-1.088 0.871,-2.09 2.046,-2.09 3.135,0 4.049,3.308 4.049,5.833 C 5.79,-3.744 3.831,0 0,0"
         style="fill:#af8006;fill-opacity:1;fill-rule:evenodd;stroke:none"
         id="path54490" />
    </g>
    <g
       id="g54492"
       transform="translate(255.488,250.142)">
      <path
         d="m 0,0 c 2.308,-1.567 4.658,-3.874 4.658,-6.834 0,-2.047 -1.393,-3.266 -3.439,-3.266 -1.828,0 -5.833,1.088 -7.662,1.611 -2.177,0.697 -4.876,1.742 -4.876,4.527 0,0.653 0.131,2.83 1.132,2.656 0.348,-0.043 0.566,-0.696 0.827,-0.914 0.305,-0.218 0.61,-0.348 1.176,-0.348 1.001,0 1.915,1.131 1.915,2.089 0,1.263 -0.739,2.438 -2.133,2.438 -2.96,0 -4.004,-3.178 -4.004,-5.616 0,-5.398 5.267,-10.926 10.752,-10.926 4.179,0 7.401,2.829 7.401,7.051 0,3.832 -2.09,6.487 -5.355,8.359 L 0,0"
         style="fill:#af8006;fill-opacity:1;fill-rule:evenodd;stroke:none"
         id="path54494" />
    </g>
    <g
       id="g54496"
       transform="translate(244.169,265.723)">
      <path
         d="m 0,0 c 0,2.089 0.828,3.308 3.091,3.308 1.306,0 4.31,-0.479 5.703,-0.826 1.611,-0.436 6.052,-1.307 6.748,-3.135 0.261,-0.697 0.435,-1.524 0.435,-2.264 0,-2.568 -1.262,-3.047 -3.569,-3.047 -2.047,0 -6.705,1.045 -8.664,1.654 C 1.611,-3.613 0,-2.438 0,0 Z m -1.087,0 c 0,-2.873 1.087,-4.832 2.438,-6.313 2.001,-2.176 4.918,-4.353 8.096,-4.353 3.57,0 6.487,1.872 7.271,5.181 0.217,0.87 0.348,1.74 0.348,2.612 C 17.066,2.742 11.755,8.01 6.139,8.01 3.918,8.01 2.134,7.052 0.653,5.442 -0.609,4.005 -1.087,1.872 -1.087,0"
         style="fill:#af8006;fill-opacity:1;fill-rule:evenodd;stroke:none"
         id="path54498" />
    </g>
    <g
       id="g54500"
       transform="translate(249.263,285.751)">
      <path
         d="m 0,0 c -1.655,0.392 -2.656,0.609 -3.178,0.609 -1.829,0 -2.743,-1.741 -2.743,-3.352 0,-3.308 3.787,-5.441 6.269,-6.834 l 0.349,0.914 c -1.002,0.609 -4.659,2.612 -4.659,3.917 0,0.698 0.566,1.089 2.307,0.654 l 7.706,-1.959 c 0.653,-0.175 1.219,-0.305 1.916,-0.305 2.83,0 4.005,2.437 4.005,5.006 0,3.135 -1.524,6.008 -6.008,8.62 -2.09,1.219 -6.312,2.569 -8.706,2.569 -1.655,0 -3.439,-0.523 -3.439,-2.569 0,-0.958 0.914,-2.003 1.915,-2.003 1.915,0 2.089,1.176 2.394,2.83 0.304,0.131 0.261,0.218 0.61,0.218 1.828,0 4.353,-0.958 6.007,-1.741 4.267,-2.047 5.703,-4.746 5.703,-6.4 0,-1.35 -0.827,-2.438 -3.831,-1.741 L 0,0"
         style="fill:#af8006;fill-opacity:1;fill-rule:evenodd;stroke:none"
         id="path54502" />
    </g>
    <g
       id="g54504"
       transform="translate(252.18,303.559)">
      <path
         d="m 0,0 c -2.656,0.958 -8.011,1.437 -8.011,5.224 0,1.654 1.263,2.351 2.831,2.351 C -1.306,7.575 0,5.137 0,1.611 Z M 3.57,9.838 C 6.138,8.315 7.966,5.877 7.966,2.786 c 0,-1.915 -1.044,-3.613 -3.09,-3.613 -1.35,0 -2.613,0.13 -3.788,0.609 v 3.222 c 0,2.656 -0.261,3.961 -0.914,5.137 -1.001,1.785 -2.264,3.265 -4.484,3.265 -3.352,0 -4.788,-3.048 -4.788,-5.964 0,-5.703 5.528,-10.796 11.1,-10.796 3.831,0 7.053,3.438 7.053,7.182 0,4.049 -1.48,6.879 -5.05,8.924 L 3.57,9.838"
         style="fill:#af8006;fill-opacity:1;fill-rule:evenodd;stroke:none"
         id="path54506" />
    </g>
    <g
       id="g54508"
       transform="translate(243.169,327.062)">
      <path
         d="m 0,0 c 0,-1.349 0.173,-2.655 0.173,-4.004 v -4.005 l 1.089,-0.305 v 3.438 l 16.151,-3.438 v 4.483 L 9.881,-2.089 C 8.706,-1.828 7.008,-1.393 5.963,-0.74 4.918,-0.086 2.307,1.611 2.307,3.004 c 0,0.653 0.566,0.871 1.131,1.219 0.566,0.349 1.132,0.784 1.132,1.872 0,1.263 -0.827,2.221 -2.133,2.221 -1.698,0 -2.524,-1.263 -2.524,-2.83 0,-2.569 2.306,-4.963 4.178,-6.4 L 4.004,-1.001 0,0"
         style="fill:#af8006;fill-opacity:1;fill-rule:evenodd;stroke:none"
         id="path54510" />
    </g>
  </g>
  <g
     stroke-linejoin="miter"
     stroke-dashoffset="0"
     stroke-dasharray="none"
     stroke-width="1"
     stroke-miterlimit="10"
     stroke-linecap="square"
     id="g29696"
     transform="matrix(0.68013201,0,0,0.49756134,63.252017,655.3863)"
     style="opacity:0.6;stroke:#00b1c1;stroke-width:10.5629;stroke-miterlimit:4;stroke-dasharray:none;stroke-opacity:1">
    <g
       id="misc"
       style="stroke:#00b1c1;stroke-width:10.5629;stroke-miterlimit:4;stroke-dasharray:none;stroke-opacity:1" />
    <g
       id="layer0"
       style="stroke:#00b1c1;stroke-width:10.5629;stroke-miterlimit:4;stroke-dasharray:none;stroke-opacity:1">
      <clipPath
         id="clip6607627e-9975-4141-ae40-08191b92a46e">
        <path
           d="M 0,0 V 428 H 1037 V 0 Z"
           id="path29682" />
      </clipPath>
      <g
         clip-path="url(#clip1)"
         id="g29693"
         style="stroke:#00b1c1;stroke-width:10.5629;stroke-miterlimit:4;stroke-dasharray:none;stroke-opacity:1">
        <g
           stroke-linejoin="round"
           stroke-width="2.5"
           stroke-linecap="round"
           fill="none"
           stroke-opacity="0.69804"
           stroke="#006400"
           id="g29691"
           style="stroke:#00b1c1;stroke-width:10.5629;stroke-miterlimit:4;stroke-dasharray:none;stroke-opacity:1">
          <path
             d="m 0.5,202.25 v 0.73 0 l 1,0.74 v 0 l 1,0.75 v 0 l 1,0.76 v 0 l 1,0.78 v 0 l 1,0.79 v 0 l 1,0.81 v 0 l 1,0.81 v 0 l 1,0.83 v 0 l 1,0.84 v 0 l 1,0.84 v 0 l 1,0.86 v 0 l 1,0.87 v 0 l 1,0.88 v 0 l 1,0.89 v 0 l 1,0.89 v 0 l 1,0.91 v 0 l 1,0.91 v 0 l 1,0.92 v 0 l 1,0.93 v 0 l 1,0.94 v 0 l 1,0.94 v 0 l 1,0.95 v 0 l 1,0.96 v 0 l 1,0.96 v 0 l 1,0.97 v 0 l 1,0.97 v 0 l 1,0.97 v 0 l 1,0.99 v 0 l 1,0.98 v 0 l 1,0.99 v 0 l 1,0.99 v 0 l 1,0.99 v 0 l 1,1 v 0 l 1,0.99 v 0 l 1,1 v 0 l 1,1 v 0 l 1,1 v 0 l 1,1 v 0 l 1,1 v 0 l 1,1 v 0 l 1,1 v 0 l 1,0.99 v 0 l 1,1 v 0 l 1,0.99 v 0 l 1,0.99 v 0 l 1,0.99 v 0 l 1,0.98 v 0 l 1,0.98 v 0 l 1,0.98 v 0 l 1,0.97 v 0 l 1,0.96 v 0 l 1,0.96 v 0 l 1,0.96 v 0 l 1,0.95 v 0 l 1,0.94 v 0 l 1,0.93 v 0 l 1,0.93 v 0 l 1,0.92 v 0 l 1,0.92 v 0 l 1,0.9 v 0 l 1,0.9 v 0 l 1,0.88 v 0 l 1,0.88 v 0 l 1,0.87 v 0 l 1,0.85 v 0 l 1,0.85 v 0 l 1,0.83 v 0 l 1,0.83 v 0 l 1,0.81 v 0 l 1,0.8 v 0 l 1,0.79 v 0 l 1,0.78 v 0 l 1,0.76 v 0 l 1,0.75 v 0 l 1,0.74 v 0 l 1,0.72 v 0 l 1,0.71 v 0 l 1,0.7 v 0 l 1,0.68 v 0 l 1,0.67 v 0 l 1,0.65 v 0 l 1,0.63 v 0 l 1,0.62 v 0 l 1,0.61 v 0 l 1,0.59 v 0 l 1,0.57 v 0 l 1,0.55 v 0 l 1,0.54 v 0 l 1,0.53 v 0 l 1,0.5 v 0 l 1,0.49 v 0 l 1,0.47 v 0 l 1,0.45 v 0 l 1,0.43 v 0 l 1,0.42 v 0 l 1,0.4 v 0 l 1,0.38 v 0 l 1,0.36 v 0 l 1,0.34 v 0 l 1,0.32 v 0 l 1,0.31 v 0 l 1,0.28 v 0 l 1,0.27 v 0 l 1,0.25 v 0 l 1,0.22 v 0 l 1,0.21 v 0 l 1,0.19 v 0 l 1,0.17 v 0 l 1,0.15 v 0 l 1,0.13 v 0 l 1,0.1 v 0 l 1,0.09 v 0 l 1,0.07 v 0 l 1,0.05 v 0 l 1,0.03 v 0 l 1,0.01 v 0 l 1,-0.01 v 0 l 1,-0.03 v 0 l 1,-0.05 v 0 l 1,-0.07 v 0 l 1,-0.09 v 0 l 1,-0.11 v 0 l 1,-0.13 v 0 l 1,-0.15 v 0 l 1,-0.17 v 0 l 1,-0.19 v 0 l 1,-0.21 v 0 l 1,-0.23 v 0 l 1,-0.25 v 0 l 1,-0.27 v 0 l 1,-0.28 v 0 l 1,-0.31 v 0 l 1,-0.33 v 0 l 1,-0.34 v 0 l 1,-0.36 v 0 l 1,-0.38 v 0 l 1,-0.4 v 0 l 1,-0.42 v 0 l 1,-0.44 v 0 l 1,-0.45 v 0 l 1,-0.47 v 0 l 1,-0.49 v 0 l 1,-0.51 v 0 l 1,-0.52 v 0 l 1,-0.54 v 0 l 1,-0.56 v 0 l 1,-0.57 v 0 l 1,-0.59 v 0 l 1,-0.6 v 0 l 1,-0.63 v 0 l 1,-0.63 v 0 l 1,-0.66 v 0 l 1,-0.66 v 0 l 1,-0.69 v 0 l 1,-0.69 v 0 l 1,-0.71 v 0 l 1,-0.73 v 0 l 1,-0.74 v 0 l 1,-0.75 v 0 l 1,-0.76 v 0 l 1,-0.78 v 0 l 1,-0.79 v 0 l 1,-0.8 v 0 l 1,-0.82 v 0 l 1,-0.82 v 0 l 1,-0.84 v 0 l 1,-0.85 v 0 l 1,-0.85 v 0 l 1,-0.87 v 0 l 1,-0.88 v 0 l 1,-0.89 v 0 l 1,-0.89 v 0 l 1,-0.91 v 0 l 1,-0.91 v 0 l 1,-0.92 v 0 l 1,-0.93 v 0 l 1,-0.94 v 0 l 1,-0.94 v 0 l 1,-0.95 v 0 l 1,-0.95 v 0 l 1,-0.96 v 0 l 1,-0.97 v 0 l 1,-0.97 v 0 l 1,-0.98 v 0 l 1,-0.98 v 0 l 1,-0.98 v 0 l 1,-0.99 v 0 l 1,-0.99 v 0 l 1,-0.99 v 0 l 1,-1 v 0 l 1,-0.99 v 0 l 1,-1 v 0 l 1,-1 v 0 l 1,-1 v 0 l 1,-1 v 0 l 1,-1 v 0 l 1,-1 v 0 l 1,-1 v 0 l 1,-0.99 v 0 l 1,-1 v 0 l 1,-0.99 v 0 l 1,-0.99 v 0 l 1,-0.99 v 0 l 1,-0.98 v 0 l 1,-0.98 v 0 l 1,-0.98 v 0 l 1,-0.97 v 0 l 1,-0.97 v 0 l 1,-0.96 v 0 l 1,-0.95 v 0 l 1,-0.95 v 0 l 1,-0.94 v 0 l 1,-0.94 v 0 l 1,-0.93 v 0 l 1,-0.92 v 0 l 1,-0.91 v 0 l 1,-0.91 v 0 l 1,-0.89 v 0 l 1,-0.89 v 0 l 1,-0.88 v 0 l 1,-0.87 v 0 l 1,-0.85 v 0 l 1,-0.85 v 0 l 1,-0.84 v 0 l 1,-0.82 v 0 l 1,-0.82 v 0 l 1,-0.8 v 0 l 1,-0.79 v 0 l 1,-0.78 v 0 l 1,-0.76 v 0 l 1,-0.75 v 0 l 1,-0.74 v 0 l 1,-0.73 v 0 l 1,-0.71 v 0 l 1,-0.69 v 0 l 1,-0.69 v 0 l 1,-0.66 v 0 l 1,-0.66 v 0 l 1,-0.63 v 0 l 1,-0.63 v 0 l 1,-0.6 v 0 l 1,-0.59 v 0 l 1,-0.57 v 0 l 1,-0.56 v 0 l 1,-0.54 v 0 l 1,-0.52 v 0 l 1,-0.51 v 0 l 1,-0.49 v 0 l 1,-0.47 v 0 l 1,-0.45 v 0 l 1,-0.44 v 0 l 1,-0.42 v 0 l 1,-0.4 v 0 l 1,-0.38 v 0 l 1,-0.36 v 0 l 1,-0.34 v 0 l 1,-0.33 v 0 l 1,-0.31 v 0 l 1,-0.28 v 0 l 1,-0.27 v 0 l 1,-0.25 v 0 l 1,-0.23 v 0 l 1,-0.21 v 0 l 1,-0.19 v 0 l 1,-0.17 v 0 l 1,-0.15 v 0 l 1,-0.13 v 0 l 1,-0.11 v 0 l 1,-0.09 v 0 l 1,-0.07 v 0 l 1,-0.05 v 0 l 1,-0.03 v 0 l 1,-0.01 v 0.01 l 1,-0.01 v 0.01 l 1,0.03 v 0 l 1,0.05 v 0 l 1,0.07 v 0 l 1,0.09 v 0 l 1,0.1 v 0 l 1,0.13 v 0 l 1,0.15 v 0 l 1,0.17 v 0 l 1,0.19 v 0 l 1,0.21 v 0 l 1,0.22 v 0 l 1,0.25 v 0 l 1,0.27 v 0 l 1,0.28 v 0 l 1,0.31 v 0 l 1,0.32 v 0 l 1,0.34 v 0 l 1,0.36 v 0 l 1,0.38 v 0 l 1,0.4 v 0 l 1,0.42 v 0 l 1,0.43 v 0 l 1,0.45 v 0 l 1,0.47 v 0 l 1,0.49 v 0 l 1,0.5 v 0 l 1,0.53 v 0 l 1,0.54 v 0 l 1,0.55 v 0 l 1,0.57 v 0 l 1,0.59 v 0 l 1,0.61 v 0 l 1,0.62 v 0 l 1,0.63 v 0 l 1,0.65 v 0 l 1,0.67 v 0 l 1,0.68 v 0 l 1,0.7 v 0 l 1,0.71 v 0 l 1,0.72 v 0 l 1,0.74 v 0 l 1,0.75 v 0 l 1,0.76 v 0 l 1,0.78 v 0 l 1,0.79 v 0 l 1,0.8 v 0 l 1,0.81 v 0 l 1,0.83 v 0 l 1,0.83 v 0 l 1,0.85 v 0 l 1,0.85 v 0 l 1,0.87 v 0 l 1,0.88 v 0 l 1,0.88 v 0 l 1,0.9 v 0 l 1,0.9 v 0 l 1,0.92 v 0 l 1,0.92 v 0 l 1,0.93 v 0 l 1,0.93 v 0 l 1,0.94 v 0 l 1,0.95 v 0 l 1,0.96 v 0 l 1,0.96 v 0 l 1,0.96 v 0 l 1,0.97 v 0 l 1,0.98 v 0 l 1,0.98 v 0 l 1,0.98 v 0 l 1,0.99 v 0 l 1,0.99 v 0 l 1,0.99 v 0 l 1,1 v 0 l 1,0.99 v 0 l 1,1 v 0 l 1,1 v 0 l 1,1 v 0 l 1,1 v 0 l 1,1 v 0 l 1,1 v 0 l 1,1 v 0 l 1,0.99 v 0 l 1,1 v 0 l 1,0.99 v 0 l 1,0.99 v 0 l 1,0.99 v 0 l 1,0.98 v 0 l 1,0.99 v 0 l 1,0.97 v 0 l 1,0.97 v 0 l 1,0.97 v 0 l 1,0.96 v 0 l 1,0.96 v 0 l 1,0.95 v 0 l 1,0.94 v 0 l 1,0.94 v 0 l 1,0.93 v 0 l 1,0.92 v 0 l 1,0.91 v 0 l 1,0.91 v 0 l 1,0.89 v 0 l 1,0.89 v 0 l 1,0.88 v 0 l 1,0.87 v 0 l 1,0.86 v 0 l 1,0.84 v 0 l 1,0.84 v 0 l 1,0.83 v 0 l 1,0.81 v 0 l 1,0.81 v 0 l 1,0.79 v 0 l 1,0.78 v 0 l 1,0.76 v 0 l 1,0.75 v 0 l 1,0.74 v 0 l 1,0.73 v 0 l 1,0.71 v 0 l 1,0.7 v 0 l 1,0.68 v 0 l 1,0.67 v 0 l 1,0.66 v 0 l 1,0.63 v 0 l 1,0.63 v 0 l 1,0.6 v 0 l 1,0.59 v 0 l 1,0.58 v 0 l 1,0.56 v 0 l 1,0.54 v 0 l 1,0.52 v 0 l 1,0.51 v 0 l 1,0.49 v 0 l 1,0.47 v 0 l 1,0.46 v 0 l 1,0.44 v 0 l 1,0.42 v 0 l 1,0.4 v 0 l 1,0.38 v 0 l 1,0.36 v 0 l 1,0.35 v 0 l 1,0.32 v 0 l 1,0.31 v 0 l 1,0.29 v 0 l 1,0.27 v 0 l 1,0.25 v 0 l 1,0.23 v 0 l 1,0.21 v 0 l 1,0.19 v 0 l 1,0.17 v 0 l 1,0.15 v 0 l 1,0.14 v 0 l 1,0.11 v 0 l 1,0.09 v 0 l 1,0.07 v 0 l 1,0.06 v 0 l 1,0.03 v 0 l 1,0.01 v -0.01 l 1,0.01 v -0.01 l 1,-0.03 v 0 l 1,-0.04 v 0 l 1,-0.07 v 0 l 1,-0.09 v 0 l 1,-0.11 v 0 l 1,-0.12 v 0 l 1,-0.15 v 0 l 1,-0.17 v 0 l 1,-0.18 v 0 l 1,-0.21 v 0 l 1,-0.22 v 0 l 1,-0.25 v 0 l 1,-0.26 v 0 l 1,-0.29 v 0 l 1,-0.3 v 0 l 1,-0.32 v 0 l 1,-0.34 v 0 l 1,-0.36 v 0 l 1,-0.38 v 0 l 1,-0.4 v 0 l 1,-0.41 v 0 l 1,-0.43 v 0 l 1,-0.46 v 0 l 1,-0.46 v 0 l 1,-0.49 v 0 l 1,-0.5 v 0 l 1,-0.52 v 0 l 1,-0.54 v 0 l 1,-0.56 v 0 l 1,-0.57 v 0 l 1,-0.58 v 0 l 1,-0.61 v 0 l 1,-0.62 v 0 l 1,-0.63 v 0 l 1,-0.65 v 0 l 1,-0.67 v 0 l 1,-0.68 v 0 l 1,-0.69 v 0 l 1,-0.71 v 0 l 1,-0.72 v 0 l 1,-0.74 v 0 l 1,-0.75 v 0 l 1,-0.76 v 0 l 1,-0.78 v 0 l 1,-0.78 v 0 l 1,-0.8 v 0 l 1,-0.82 v 0 l 1,-0.82 v 0 l 1,-0.83 v 0 l 1,-0.85 v 0 l 1,-0.86 v 0 l 1,-0.86 v 0 l 1,-0.88 v 0 l 1,-0.88 v 0 l 1,-0.9 v 0 l 1,-0.9 v 0 l 1,-0.91 v 0 l 1,-0.92 v 0 l 1,-0.93 v 0 l 1,-0.94 v 0 l 1,-0.94 v 0 l 1,-0.95 v 0 l 1,-0.95 v 0 l 1,-0.96 v 0 l 1,-0.97 v 0 l 1,-0.97 v 0 l 1,-0.97 v 0 l 1,-0.98 v 0 l 1,-0.98 v 0 l 1,-0.99 v 0 l 1,-0.99 v 0 l 1,-0.99 v 0 l 1,-1 v 0 l 1,-0.99 v 0 l 1,-1 v 0 l 1,-1 v 0 l 1,-1 v 0 l 1,-1 v 0 l 1,-1 v 0 l 1,-1 v 0 l 1,-1 v 0 l 1,-1 v 0 l 1,-0.99 v 0 l 1,-0.99 v 0 l 1,-0.99 v 0 l 1,-0.99 v 0 l 1,-0.99 v 0 l 1,-0.98 v 0 l 1,-0.97 v 0 l 1,-0.98 v 0 l 1,-0.96 v 0 l 1,-0.96 v 0 l 1,-0.96 v 0 l 1,-0.95 v 0 l 1,-0.95 v 0 l 1,-0.93 v 0 l 1,-0.93 v 0 l 1,-0.92 v 0 l 1,-0.92 v 0 l 1,-0.9 v 0 l 1,-0.9 v 0 l 1,-0.89 v 0 l 1,-0.88 v 0 l 1,-0.87 v 0 l 1,-0.86 v 0 l 1,-0.85 v 0 l 1,-0.84 v 0 l 1,-0.82 v 0 l 1,-0.82 v 0 l 1,-0.8 v 0 l 1,-0.79 v 0 l 1,-0.78 v 0 l 1,-0.77 v 0 l 1,-0.75 v 0 l 1,-0.75 v 0 l 1,-0.72 v 0 l 1,-0.72 v 0 l 1,-0.69 v 0 l 1,-0.69 v 0 l 1,-0.67 v 0 l 1,-0.65 v 0 l 1,-0.64 v 0 l 1,-0.63 v 0 l 1,-0.61 v 0 l 1,-0.59 v 0 l 1,-0.57 v 0 l 1,-0.56 v 0 l 1,-0.55 v 0 l 1,-0.52 v 0 l 1,-0.51 v 0 l 1,-0.49 v 0 l 1,-0.48 v 0 l 1,-0.45 v 0 l 1,-0.44 v 0 l 1,-0.42 v 0 l 1,-0.41 v 0 l 1,-0.38 v 0 l 1,-0.36 v 0 l 1,-0.35 v 0 l 1,-0.33 v 0 l 1,-0.31 v 0 l 1,-0.29 v 0 l 1,-0.27 v 0 l 1,-0.25 v 0 l 1,-0.23 v 0 l 1,-0.21 v 0 l 1,-0.2 v 0 l 1,-0.17 v 0 l 1,-0.15 v 0 l 1,-0.14 v 0 l 1,-0.11 v 0 l 1,-0.09 v 0 l 1,-0.08 v 0 l 1,-0.05 v 0 l 1,-0.04 v 0 l 1,-0.01 v 0.01 l 1,-0.01 v 0.01 l 1,0.02 v 0 l 1,0.05 v 0 l 1,0.06 v 0 l 1,0.09 v 0 l 1,0.11 v 0 l 1,0.12 v 0 l 1,0.15 v 0 l 1,0.16 v 0 l 1,0.19 v 0 l 1,0.2 v 0 l 1,0.23 v 0 l 1,0.24 v 0 l 1,0.26 v 0 l 1,0.28 v 0 l 1,0.31 v 0 l 1,0.32 v 0 l 1,0.34 v 0 l 1,0.35 v 0 l 1,0.38 v 0 l 1,0.39 v 0 l 1,0.42 v 0 l 1,0.43 v 0 l 1,0.45 v 0 l 1,0.47 v 0 l 1,0.48 v 0 l 1,0.5 v 0 l 1,0.52 v 0 l 1,0.54 v 0 l 1,0.55 v 0 l 1,0.57 v 0 l 1,0.59 v 0 l 1,0.6 v 0 l 1,0.62 v 0 l 1,0.63 v 0 l 1,0.65 v 0 l 1,0.66 v 0 l 1,0.68 v 0 l 1,0.69 v 0 l 1,0.71 v 0 l 1,0.72 v 0 l 1,0.74 v 0 l 1,0.75 v 0 l 1,0.76 v 0 l 1,0.77 v 0 l 1,0.79 v 0 l 1,0.8 v 0 l 1,0.81 v 0 l 1,0.82 v 0 l 1,0.84 v 0 l 1,0.84 v 0 l 1,0.86 v 0 l 1,0.86 v 0 l 1,0.88 v 0 l 1,0.88 v 0 l 1,0.9 v 0 l 1,0.9 v 0 l 1,0.91 v 0 l 1,0.92 v 0 l 1,0.93 v 0 l 1,0.93 v 0 l 1,0.94 v 0 l 1,0.95 v 0 l 1,0.95 v 0 l 1,0.96 v 0 l 1,0.97 v 0 l 1,0.97 v 0 l 1,0.97 v 0 l 1,0.98 v 0 l 1,0.99 v 0 l 1,0.98 v 0 l 1,0.99 v 0 l 1,0.99 v 0 l 1,1 v 0 l 1,0.99 v 0 l 1,1 v 0 l 1,1 v 0 l 1,1 v 0 l 1,1 v 0 l 1,1 v 0 l 1,1 v 0 l 1,1 v 0 l 1,1 v 0 l 1,0.99 v 0 l 1,0.99 v 0 l 1,1 v 0 l 1,0.98 v 0 l 1,0.99 v 0 l 1,0.98 v 0 l 1,0.98 v 0 l 1,0.97 v 0 l 1,0.97 v 0 l 1,0.96 v 0 l 1,0.96 v 0 l 1,0.95 v 0 l 1,0.94 v 0 l 1,0.94 v 0 l 1,0.93 v 0 l 1,0.92 v 0 l 1,0.92 v 0 l 1,0.9 v 0 l 1,0.9 v 0 l 1,0.89 v 0 l 1,0.88 v 0 l 1,0.87 v 0 l 1,0.86 v 0 l 1,0.85 v 0 l 1,0.84 v 0 l 1,0.83 v 0 l 1,0.81 v 0 l 1,0.81 v 0 l 1,0.79 v 0 l 1,0.78 v 0 l 1,0.77 v 0 l 1,0.76 v 0 l 1,0.74 v 0 l 1,0.72 v 0 l 1,0.72 v 0 l 1,0.7 v 0 l 1,0.68 v 0 l 1,0.68 v 0 l 1,0.65 v 0 l 1,0.64 v 0 l 1,0.63 v 0 l 1,0.61 v 0 l 1,0.59 v 0 l 1,0.58 v 0 l 1,0.56 v 0 l 1,0.54 v 0 l 1,0.53 v 0 l 1,0.51 v 0 l 1,0.49 v 0 l 1,0.48 v 0 l 1,0.46 v 0 l 1,0.44 v 0 l 1,0.42 v 0 l 1,0.4 v 0 l 1,0.39 v 0 l 1,0.37 v 0 l 1,0.34 v 0 l 1,0.33 v 0 l 1,0.31 v 0 l 1,0.3 v 0 l 1,0.27 v 0 l 1,0.25 v 0 l 1,0.23 v 0 l 1,0.22 v 0 l 1,0.19 v 0 l 1,0.18 v 0 l 1,0.15 v 0 l 1,0.14 v 0 l 1,0.11 v 0 l 1,0.1 v 0 l 1,0.07 v 0 l 1,0.06 v 0 l 1,0.03 v 0 l 1,0.02 v -0.01 l 1,0.01 v -0.01 l 1,-0.02 v 0 l 1,-0.04 v 0 l 1,-0.07 v 0 l 1,-0.08 v 0 l 1,-0.11 v 0 l 1,-0.12 v 0 l 1,-0.15 v 0 l 1,-0.16 v 0 l 1,-0.18 v 0 l 1,-0.21 v 0 l 1,-0.22 v 0 l 1,-0.24 v 0 l 1,-0.26 v 0 l 1,-0.28 v 0 l 1,-0.3 v 0 l 1,-0.32 v 0 l 1,-0.34 v 0 l 1,-0.35 v 0 l 1,-0.38 v 0 l 1,-0.39 v 0 l 1,-0.41 v 0 l 1,-0.43 v 0 l 1,-0.45 v 0 l 1,-0.47 v 0 l 1,-0.48 v 0 l 1,-0.5 v 0 l 1,-0.52 v 0 l 1,-0.53 v 0 l 1,-0.56 v 0 l 1,-0.56 v 0 l 1,-0.59 v 0 l 1,-0.6 v 0 l 1,-0.62 v 0 l 1,-0.63 v 0 l 1,-0.65 v 0 l 1,-0.66 v 0 l 1,-0.68 v 0 l 1,-0.69 v 0 l 1,-0.71 v 0 l 1,-0.72 v 0 l 1,-0.73 v 0 l 1,-0.75 v 0 l 1,-0.76 v 0 l 1,-0.77 v 0 l 1,-0.79 v 0 l 1,-0.8 v 0 l 1,-0.81 v 0 l 1,-0.82 v 0 l 1,-0.83 v 0 l 1,-0.84 v 0 l 1,-0.86 v 0 l 1,-0.86 v 0 l 1,-0.88 v 0 l 1,-0.88 v 0 l 1,-0.9 v 0 l 1,-0.9 v 0 l 1,-0.91 v 0 l 1,-0.92 v 0 l 1,-0.92 v 0 l 1,-0.94 v 0 l 1,-0.94 v 0 l 1,-0.94 v 0 l 1,-0.96 v 0 l 1,-0.96 v 0 l 1,-0.96 v 0 l 1,-0.97 v 0 l 1,-0.98 v 0 l 1,-0.97 v 0 l 1,-0.99 v 0 l 1,-0.98 v 0 l 1,-0.99 v 0 l 1,-0.99 v 0 l 1,-1 v 0 l 1,-1 v 0 l 1,-0.99 v 0 l 1,-1 v 0 l 1,-1 v 0 l 1,-1 v 0 l 1,-1 v 0 l 1,-1 v 0 l 1,-1 v 0 l 1,-1 v 0 l 1,-0.99 v 0 l 1,-1 v 0 l 1,-0.99 v 0 l 1,-0.99 v 0 l 1,-0.98 v 0 l 1,-0.98 v 0 l 1,-0.98 v 0 l 1,-0.97 v 0 l 1,-0.97 v 0 l 1,-0.96 v 0 l 1,-0.96 v 0 l 1,-0.95 v 0 l 1,-0.95 v 0 l 1,-0.93 v 0 l 1,-0.93 v 0 l 1,-0.93 v 0 l 1,-0.91 v 0 l 1,-0.91 v 0 l 1,-0.9 v 0 l 1,-0.89 v 0 l 1,-0.88 v 0 l 1,-0.87 v 0 l 1,-0.86 v 0 l 1,-0.85 v 0 l 1,-0.84 v 0 l 1,-0.83 v 0 l 1,-0.82 v 0 l 1,-0.81 v 0 l 1,-0.79 v 0 l 1,-0.78 v 0 l 1,-0.77 v 0 l 1,-0.76 v 0 l 1,-0.74 v 0 l 1,-0.73 v 0 l 1,-0.71 v 0 l 1,-0.7 v 0 l 1,-0.69 v 0 l 1,-0.67 v 0 l 1,-0.66 v 0 l 1,-0.64 v 0 l 1,-0.63 v 0 l 1,-0.61 v 0 l 1,-0.59 v 0 l 1,-0.58 v 0 l 1,-0.57 v 0 l 1,-0.54 v 0 l 1,-0.53 v 0 l 1,-0.51 v 0 l 1,-0.5 v 0 l 1,-0.47 v 0 l 1,-0.46 v 0 l 1,-0.44 v 0 l 1,-0.43 v 0 l 1,-0.4 v 0 l 1,-0.39 v 0 l 1,-0.37 v 0 l 1,-0.35 v 0 l 1,-0.33 v 0 l 1,-0.31 v 0 l 1,-0.29 v 0 l 1,-0.28 v 0 l 1,-0.25 v 0 l 1,-0.24 v 0 l 1,-0.21 v 0 l 1,-0.2 v 0 l 1,-0.17 v 0 l 1,-0.16 v 0 l 1,-0.14 v 0 l 1,-0.11 v 0 l 1,-0.1 v 0 l 1,-0.08 v 0 l 1,-0.05 v 0 l 1,-0.04 v 0 l 1,-0.02 v 0 h 1 v 0 l 1,0.03 v 0 l 1,0.04 v 0 l 1,0.06 v 0 l 1,0.09 v 0 l 1,0.1 v 0 l 1,0.12 v 0 l 1,0.14 v 0 l 1,0.16 v 0 l 1,0.19 v 0 l 1,0.2 v 0 l 1,0.22 v 0 l 1,0.24 v 0 l 1,0.26 v 0 l 1,0.28 v 0 l 1,0.3 v 0 l 1,0.31 v 0 l 1,0.34 v 0 l 1,0.36 v 0 l 1,0.37 v 0 l 1,0.39 v 0 l 1,0.41 v 0 l 1,0.43 v 0 l 1,0.45 v 0 l 1,0.46 v 0 l 1,0.48 v 0 l 1,0.5 v 0 l 1,0.52 v 0 l 1,0.53 v 0 l 1,0.55 v 0 l 1,0.57 v 0 l 1,0.58 v 0 l 1,0.6 v 0 l 1,0.62 v 0 l 1,0.63 v 0 l 1,0.64 v 0 l 1,0.67 v 0 l 1,0.67 v 0 l 1,0.69 v 0 l 1,0.71 v 0 l 1,0.72 v 0 l 1,0.73 v 0 l 1,0.75 v 0 l 1,0.76 v 0 l 1,0.77 v 0 l 1,0.78 v 0 l 1,0.8 v 0 l 1,0.81 v 0 l 1,0.82 v 0 l 1,0.83 v 0 l 1,0.85 v 0 l 1,0.85 v 0 l 1,0.86 v 0 l 1,0.88 v 0 l 1,0.88 v 0 l 1,0.89 v 0 l 1,0.91 v 0 l 1,0.91 v 0 l 1,0.91 v 0 l 1,0.93 v 0 l 1,0.93 v 0 l 1,0.94 v 0 l 1,0.95 v 0 l 1,0.95 v 0 l 1,0.96 v 0 l 1,0.96 v 0 l 1,0.97 v 0 l 1,0.98 v 0 l 1,0.98 v 0 l 1,0.98 v 0 l 1,0.98 v 0 l 1,0.99 v 0 l 1,1 v 0 l 1,0.99 v 0 l 1,1 v 0 l 1,0.99 v 0 l 1,1 v 0 l 1,1 v 0 l 1,1 v 0 l 1,1 v 0 l 1,1 v 0 l 1,1 v 0 l 1,1 v 0 l 1,0.99 v 0 l 1,1 v 0 l 1,0.99 v 0 l 1,0.99 v 0 l 1,0.98 v 0 l 1,0.98 v 0 l 1,0.98 v 0 l 1,0.97 v 0 l 1,0.97 v 0 l 1,0.97 v 0 l 1,0.95 v 0 l 1,0.95 v 0 l 1,0.95 v 0 l 1,0.94 v 0 l 1,0.93 v 0 l 1,0.92 v 0 l 1,0.92 v 0 l 1,0.91 v 0 l 1,0.9 v 0 l 1,0.89 v 0 l 1,0.88 v 0 l 1,0.87 v 0 l 1,0.86 v 0 l 1,0.86 v 0 l 1,0.84 v 0 l 1,0.83 v 0 l 1,0.81 v 0 l 1,0.81 v 0 l 1,0.8 v 0 l 1,0.78 v 0 l 1,0.77 v 0 l 1,0.76 v 0 l 1,0.74 v 0 l 1,0.73 v 0 l 1,0.72 v 0 l 1,0.7 v 0 l 1,0.69 v 0 l 1,0.67 v 0 l 1,0.66 v 0 l 1,0.64 v 0 l 1,0.63 v 0 l 1,0.61 v 0 l 1,0.6 v 0 l 1,0.58 v 0 l 1,0.56 v 0 l 1,0.55 v 0 l 1,0.53 v 0 l 1,0.51 v 0 l 1,0.5 v 0 l 1,0.48 v 0 l 1,0.46 v 0 l 1,0.44 v 0 l 1,0.42"
             id="path29685"
             style="stroke:#00b1c1;stroke-width:10.5629;stroke-miterlimit:4;stroke-dasharray:none;stroke-opacity:1" />
          <title
             id="title29687">Function f</title>
          <desc
             id="desc29689">f(x) = sin(x)</desc>
        </g>
      </g>
    </g>
  </g>
  <rect
     x="0"
     y="0"
     width="150"
     height="1100"
     fill="#6a7b2b"
     id="rect17137"
     style="fill:#5f7110;fill-opacity:1;opacity:1" />
  <text
     x="188.66699"
     y="209.04395"
     font-family="Georgia, 'Times New Roman', serif"
     font-weight="700"
     font-size="78px"
     fill="#b08a17"
     id="text17205">MTH091</text>
  <text
     x="191.00098"
     y="272.79297"
     font-family="Georgia, 'Times New Roman', serif"
     font-size="50px"
     fill="#4a2a12"
     id="text17207">Algebraic Literacy</text>
  <line
     x1="190"
     y1="300.89655"
     x2="740"
     y2="300.89655"
     stroke="#6a7b2b"
     stroke-width="2"
     id="line17209"
     style="opacity:1;stroke-width:3.89518;stroke-miterlimit:4;stroke-dasharray:none;stroke:#f6d654;stroke-opacity:1" />
  <text
     x="189.53125"
     y="340.11719"
     font-family="Georgia, 'Times New Roman', serif"
     font-size="20px"
     fill="#333333"
     id="text17211"
     style="fill:#333333"><tspan
       sodipodi:role="line"
       id="tspan23333"
       x="189.53125"
       y="340.11719">Chemeketa Mathematics Department</tspan><tspan
       sodipodi:role="line"
       x="189.53125"
       y="365.11719"
       id="tspan23335" /></text>
  <metadata
     id="metadata17278">
    <rdf:RDF>
      <cc:Work
         rdf:about="">
        <dc:title>MTH091 — Algebraic Literacy</dc:title>
      </cc:Work>
    </rdf:RDF>
  </metadata>
  <g
     opacity=".15"
     stroke="#ffffff"
     stroke-width="1"
     id="g17203"
     style="opacity:0.4">
    <path
       d="M20 0 V1100"
       id="path17139" />
    <path
       d="M40 0 V1100"
       id="path17141" />
    <path
       d="M60 0 V1100"
       id="path17143" />
    <path
       d="M80 0 V1100"
       id="path17145" />
    <path
       d="M100 0 V1100"
       id="path17147" />
    <path
       d="M120 0 V1100"
       id="path17149" />
    <path
       d="M0 40 H150"
       id="path17151" />
    <path
       d="M0 80 H150"
       id="path17153" />
    <path
       d="M0 120 H150"
       id="path17155" />
    <path
       d="M0 160 H150"
       id="path17157" />
    <path
       d="M0 200 H150"
       id="path17159" />
    <path
       d="M0 240 H150"
       id="path17161" />
    <path
       d="M0 280 H150"
       id="path17163" />
    <path
       d="M0 320 H150"
       id="path17165" />
    <path
       d="M0 360 H150"
       id="path17167" />
    <path
       d="M0 400 H150"
       id="path17169" />
    <path
       d="M0 440 H150"
       id="path17171" />
    <path
       d="M0 480 H150"
       id="path17173" />
    <path
       d="M0 520 H150"
       id="path17175" />
    <path
       d="M0 560 H150"
       id="path17177" />
    <path
       d="M0 600 H150"
       id="path17179" />
    <path
       d="M0 640 H150"
       id="path17181" />
    <path
       d="M0 680 H150"
       id="path17183" />
    <path
       d="M0 720 H150"
       id="path17185" />
    <path
       d="M0 760 H150"
       id="path17187" />
    <path
       d="M0 800 H150"
       id="path17189" />
    <path
       d="M0 840 H150"
       id="path17191" />
    <path
       d="M0 880 H150"
       id="path17193" />
    <path
       d="M0 920 H150"
       id="path17195" />
    <path
       d="M0 960 H150"
       id="path17197" />
    <path
       d="M0 1000 H150"
       id="path17199" />
    <path
       d="M0 1040 H150"
       id="path17201" />
  </g>
</svg>
