<?xml version="1.0" encoding="UTF-8" standalone="no"?>
<!-- Created with Inkscape (http://www.inkscape.org/) -->

<svg
   width="168.85121mm"
   height="191.34062mm"
   viewBox="0 0 168.85121 191.34062"
   version="1.1"
   id="svg5"
   inkscape:export-filename="C:\Users\Nolan Mitchell\Desktop\tile.png"
   inkscape:export-xdpi="75.209999"
   inkscape:export-ydpi="75.209999"
   inkscape:version="1.1.2 (b8e25be833, 2022-02-05)"
   sodipodi:docname="tile.svg"
   xmlns:inkscape="http://www.inkscape.org/namespaces/inkscape"
   xmlns:sodipodi="http://sodipodi.sourceforge.net/DTD/sodipodi-0.dtd"
   xmlns="http://www.w3.org/2000/svg"
   xmlns:svg="http://www.w3.org/2000/svg">
  <sodipodi:namedview
     id="namedview7"
     pagecolor="#ffffff"
     bordercolor="#666666"
     borderopacity="1.0"
     inkscape:pageshadow="2"
     inkscape:pageopacity="0.0"
     inkscape:pagecheckerboard="0"
     inkscape:document-units="mm"
     showgrid="false"
     inkscape:snap-page="true"
     fit-margin-top="5"
     fit-margin-left="5"
     fit-margin-right="5"
     fit-margin-bottom="5"
     inkscape:zoom="1.1789048"
     inkscape:cx="318.51596"
     inkscape:cy="361.35233"
     inkscape:window-width="1920"
     inkscape:window-height="1017"
     inkscape:window-x="1912"
     inkscape:window-y="-8"
     inkscape:window-maximized="1"
     inkscape:current-layer="layer1" />
  <defs
     id="defs2">
    <marker
       style="overflow:visible"
       id="marker1561"
       refX="0"
       refY="0"
       orient="auto"
       inkscape:stockid="Arrow2Mstart"
       inkscape:isstock="true">
      <path
         transform="scale(0.6)"
         d="M 8.7185878,4.0337352 -2.2072895,0.01601326 8.7185884,-4.0017078 c -1.7454984,2.3720609 -1.7354408,5.6174519 -6e-7,8.035443 z"
         style="fill:context-stroke;fill-rule:evenodd;stroke:context-stroke;stroke-width:0.625;stroke-linejoin:round"
         id="path1559" />
    </marker>
    <marker
       style="overflow:visible"
       id="Arrow2Mend"
       refX="0"
       refY="0"
       orient="auto"
       inkscape:stockid="Arrow2Mend"
       inkscape:isstock="true">
      <path
         transform="scale(-0.6)"
         d="M 8.7185878,4.0337352 -2.2072895,0.01601326 8.7185884,-4.0017078 c -1.7454984,2.3720609 -1.7354408,5.6174519 -6e-7,8.035443 z"
         style="fill:context-stroke;fill-rule:evenodd;stroke:context-stroke;stroke-width:0.625;stroke-linejoin:round"
         id="path1258" />
    </marker>
    <marker
       style="overflow:visible"
       id="Arrow2Mstart"
       refX="0"
       refY="0"
       orient="auto"
       inkscape:stockid="Arrow2Mstart"
       inkscape:isstock="true">
      <path
         transform="scale(0.6)"
         d="M 8.7185878,4.0337352 -2.2072895,0.01601326 8.7185884,-4.0017078 c -1.7454984,2.3720609 -1.7354408,5.6174519 -6e-7,8.035443 z"
         style="fill:context-stroke;fill-rule:evenodd;stroke:context-stroke;stroke-width:0.625;stroke-linejoin:round"
         id="path1255" />
    </marker>
    <marker
       style="overflow:visible"
       id="Arrow1Mend"
       refX="0"
       refY="0"
       orient="auto"
       inkscape:stockid="Arrow1Mend"
       inkscape:isstock="true">
      <path
         transform="matrix(-0.4,0,0,-0.4,-4,0)"
         style="fill:context-stroke;fill-rule:evenodd;stroke:context-stroke;stroke-width:1pt"
         d="M 0,0 5,-5 -12.5,0 5,5 Z"
         id="path1240" />
    </marker>
    <marker
       style="overflow:visible"
       id="marker1527"
       refX="0"
       refY="0"
       orient="auto"
       inkscape:stockid="Arrow1Lend"
       inkscape:isstock="true">
      <path
         transform="matrix(-0.8,0,0,-0.8,-10,0)"
         style="fill:context-stroke;fill-rule:evenodd;stroke:context-stroke;stroke-width:1pt"
         d="M 0,0 5,-5 -12.5,0 5,5 Z"
         id="path1525" />
    </marker>
    <marker
       style="overflow:visible"
       id="marker1517"
       refX="0"
       refY="0"
       orient="auto"
       inkscape:stockid="Arrow2Lend"
       inkscape:isstock="true">
      <path
         transform="matrix(-1.1,0,0,-1.1,-1.1,0)"
         d="M 8.7185878,4.0337352 -2.2072895,0.01601326 8.7185884,-4.0017078 c -1.7454984,2.3720609 -1.7354408,5.6174519 -6e-7,8.035443 z"
         style="fill:context-stroke;fill-rule:evenodd;stroke:context-stroke;stroke-width:0.625;stroke-linejoin:round"
         id="path1515" />
    </marker>
    <marker
       style="overflow:visible"
       id="Arrow1Lend"
       refX="0"
       refY="0"
       orient="auto"
       inkscape:stockid="Arrow1Lend"
       inkscape:isstock="true">
      <path
         transform="matrix(-0.8,0,0,-0.8,-10,0)"
         style="fill:context-stroke;fill-rule:evenodd;stroke:context-stroke;stroke-width:1pt"
         d="M 0,0 5,-5 -12.5,0 5,5 Z"
         id="path1234" />
    </marker>
    <marker
       style="overflow:visible"
       id="Arrow2Lend"
       refX="0"
       refY="0"
       orient="auto"
       inkscape:stockid="Arrow2Lend"
       inkscape:isstock="true">
      <path
         transform="matrix(-1.1,0,0,-1.1,-1.1,0)"
         d="M 8.7185878,4.0337352 -2.2072895,0.01601326 8.7185884,-4.0017078 c -1.7454984,2.3720609 -1.7354408,5.6174519 -6e-7,8.035443 z"
         style="fill:context-stroke;fill-rule:evenodd;stroke:context-stroke;stroke-width:0.625;stroke-linejoin:round"
         id="path1252" />
    </marker>
    <marker
       style="overflow:visible"
       id="Arrow1Mstart"
       refX="0"
       refY="0"
       orient="auto"
       inkscape:stockid="Arrow1Mstart"
       inkscape:isstock="true">
      <path
         transform="matrix(0.4,0,0,0.4,4,0)"
         style="fill:context-stroke;fill-rule:evenodd;stroke:context-stroke;stroke-width:1pt"
         d="M 0,0 5,-5 -12.5,0 5,5 Z"
         id="path1237" />
    </marker>
  </defs>
  <g
     inkscape:label="Layer 1"
     inkscape:groupmode="layer"
     id="layer1"
     transform="translate(3.8723841,6.016947)">
    <rect
       style="opacity:0.9;fill:#644506;fill-opacity:1;stroke:none;stroke-width:4;stroke-miterlimit:4;stroke-dasharray:none;stroke-opacity:0.89"
       id="rect106562"
       width="154.85121"
       height="154.8512"
       x="3.1276159"
       y="0.98305303" />
    <rect
       style="opacity:0.9;fill:none;fill-opacity:1;stroke:#bcb39f;stroke-width:4;stroke-miterlimit:4;stroke-dasharray:none;stroke-opacity:0.89"
       id="rect73831"
       width="154.85121"
       height="154.8512"
       x="3.1276159"
       y="0.98305303" />
    <path
       style="fill:none;stroke:#000000;stroke-width:1.27933;stroke-linecap:butt;stroke-linejoin:miter;stroke-miterlimit:4;stroke-dasharray:none;stroke-opacity:1;marker-start:url(#marker1561)"
       d="M 31.201435,171.90944 H 73.145338"
       id="path1149" />
    <text
       xml:space="preserve"
       style="font-style:normal;font-weight:normal;font-size:10.5833px;line-height:1.25;font-family:sans-serif;fill:#000000;fill-opacity:1;stroke:none;stroke-width:0.264583"
       x="77.225273"
       y="175.82454"
       id="text2979"><tspan
         sodipodi:role="line"
         id="tspan2977"
         style="stroke-width:0.264583"
         x="77.225273"
         y="175.82454">2</tspan><tspan
         sodipodi:role="line"
         style="stroke-width:0.264583"
         x="77.225273"
         y="189.05367"
         id="tspan2981" /></text>
    <g
       id="g89517"
       transform="rotate(-135,80.553222,78.408651)"
       style="stroke-width:0.8;stroke-miterlimit:4;stroke-dasharray:none">
      <path
         id="path5883"
         style="opacity:1;fill:#020076;fill-opacity:0.9;stroke:#aa893c;stroke-width:0.8;stroke-linejoin:round;stroke-miterlimit:4;stroke-dasharray:none;stroke-opacity:1"
         d="m 80.750714,78.408651 a 35.009087,35.008933 0 0 1 2.289784,0.07493 35.009087,35.008933 0 0 1 2.279965,0.224792 35.009087,35.008933 0 0 1 2.260327,0.373103 35.009087,35.008933 0 0 1 2.230871,0.520382 35.009087,35.008933 0 0 1 2.192116,0.665075 35.009087,35.008933 0 0 1 2.144053,0.80667 35.009087,35.008933 0 0 1 2.087211,0.945679 35.009087,35.008933 0 0 1 2.020033,1.080037 35.009087,35.008933 0 0 1 1.945616,1.209746 35.009087,35.008933 0 0 1 1.86242,1.334286 35.009087,35.008933 0 0 1 1.77043,1.453139 35.009087,35.008933 0 0 1 1.67225,1.566315 35.009087,35.008933 0 0 1 1.56631,1.671733 35.009087,35.008933 0 0 1 1.45314,1.770949 35.009087,35.008933 0 0 1 1.33429,1.86242 35.009087,35.008933 0 0 1 1.20974,1.945101 35.009087,35.008933 0 0 1 1.08004,2.020548 35.009087,35.008933 0 0 1 0.94568,2.086694 35.009087,35.008933 0 0 1 0.80667,2.14405 35.009087,35.008933 0 0 1 0.66508,2.19264 35.009087,35.008933 0 0 1 0.52038,2.23087 35.009087,35.008933 0 0 1 0.3731,2.26032 35.009087,35.008933 0 0 1 0.22479,2.27997 35.009087,35.008933 0 0 1 0.0687,2.09806 L 150.57123,78.408651 H 115.7594 Z" />
      <path
         id="path5888"
         style="opacity:1;fill:#020076;fill-opacity:0.9;stroke:#aa893c;stroke-width:0.8;stroke-linejoin:round;stroke-miterlimit:4;stroke-dasharray:none;stroke-opacity:1"
         d="m 80.55322,78.606125 a 35.008933,35.009087 0 0 1 -0.391189,5.217768 35.008933,35.009087 0 0 1 -1.16427,5.101498 35.008933,35.009087 0 0 1 -1.911511,4.870502 35.008933,35.009087 0 0 1 -2.616377,4.531508 35.008933,35.009087 0 0 1 -3.262334,4.091219 35.008933,35.009087 0 0 1 -3.835424,3.55896 35.008933,35.009087 0 0 1 -4.323252,2.94762 35.008933,35.009087 0 0 1 -4.714441,2.27014 35.008933,35.009087 0 0 1 -4.999693,1.54203 35.008933,35.009087 0 0 1 -5.174361,0.78031 35.008933,35.009087 0 0 1 -2.516127,0 l 34.908979,34.90898 v -34.81131 z" />
      <path
         id="path5886"
         style="opacity:1;fill:#020076;fill-opacity:0.9;stroke:#aa893c;stroke-width:0.8;stroke-linejoin:round;stroke-miterlimit:4;stroke-dasharray:none;stroke-opacity:1"
         d="M 45.354791,43.589069 10.53521,78.408651 h 34.811829 35.008713 a 35.009087,35.008933 0 0 1 -3.051492,-0.133326 35.009087,35.008933 0 0 1 -3.027722,-0.398426 35.009087,35.008933 0 0 1 -2.98173,-0.660942 35.009087,35.008933 0 0 1 -2.912999,-0.91829 35.009087,35.008933 0 0 1 -2.821535,-1.168921 35.009087,35.008933 0 0 1 -2.708879,-1.41025 35.009087,35.008933 0 0 1 -2.57607,-1.641242 35.009087,35.008933 0 0 1 -2.423107,-1.858801 35.009087,35.008933 0 0 1 -2.251543,-2.063441 35.009087,35.008933 0 0 1 -2.063438,-2.252059 35.009087,35.008933 0 0 1 -1.85932,-2.422591 35.009087,35.008933 0 0 1 -1.640726,-2.576071 35.009087,35.008933 0 0 1 -1.41025,-2.708878 35.009087,35.008933 0 0 1 -1.168922,-2.822048 35.009087,35.008933 0 0 1 -0.918289,-2.912486 35.009087,35.008933 0 0 1 -0.661458,-2.98173 35.009087,35.008933 0 0 1 -0.398426,-3.028238 35.009087,35.008933 0 0 1 -0.125055,-2.861842 z" />
      <path
         id="path5876"
         style="opacity:1;fill:#020076;fill-opacity:0.9;stroke:#aa893c;stroke-width:0.8;stroke-linejoin:round;stroke-miterlimit:4;stroke-dasharray:none;stroke-opacity:1"
         d="M 80.55322,8.3906387 V 43.20195 78.210667 a 35.008933,35.009087 0 0 1 0.08165,-2.389003 35.008933,35.009087 0 0 1 0.24443,-2.378149 35.008933,35.009087 0 0 1 0.406175,-2.355413 35.008933,35.009087 0 0 1 0.565859,-2.322854 35.008933,35.009087 0 0 1 0.723469,-2.278414 35.008933,35.009087 0 0 1 0.876948,-2.223638 35.008933,35.009087 0 0 1 1.026295,-2.159039 35.008933,35.009087 0 0 1 1.172022,-2.083594 35.008933,35.009087 0 0 1 1.311031,-1.998845 35.008933,35.009087 0 0 1 1.444356,-1.904794 35.008933,35.009087 0 0 1 1.570963,-1.801439 35.008933,35.009087 0 0 1 1.690336,-1.690338 35.008933,35.009087 0 0 1 1.801439,-1.57148 35.008933,35.009087 0 0 1 1.904794,-1.444355 35.008933,35.009087 0 0 1 1.998845,-1.311032 35.008933,35.009087 0 0 1 2.084109,-1.171506 35.008933,35.009087 0 0 1 2.158529,-1.026808 35.008933,35.009087 0 0 1 2.22363,-0.876951 35.008933,35.009087 0 0 1 2.27894,-0.722953 35.008933,35.009087 0 0 1 2.32233,-0.565856 35.008933,35.009087 0 0 1 2.35593,-0.406178 35.008933,35.009087 0 0 1 2.37763,-0.244946 35.008933,35.009087 0 0 1 2.19832,-0.07441 z" />
      <path
         id="path5570"
         style="opacity:1;fill:#020076;fill-opacity:0.9;stroke:#aa893c;stroke-width:0.8;stroke-linejoin:round;stroke-miterlimit:4;stroke-dasharray:none;stroke-opacity:1"
         d="m 115.56194,43.399934 a 35.008933,35.009087 0 0 0 -0.19069,0.0067 l 35.00252,35.001996 h 0.1974 A 35.008933,35.009087 0 0 0 115.56194,43.399934 Z" />
      <path
         id="path5572"
         style="opacity:1;fill:#020076;fill-opacity:0.9;stroke:#aa893c;stroke-width:0.8;stroke-linejoin:round;stroke-miterlimit:4;stroke-dasharray:none;stroke-opacity:1"
         d="m 10.535274,78.408651 a 35.008933,35.009087 0 0 0 17.504357,30.319079 35.008933,35.009087 0 0 0 17.696079,4.68395 L 10.732678,78.408651 Z" />
      <path
         id="path5574"
         style="opacity:1;fill:#020076;fill-opacity:0.9;stroke:#aa893c;stroke-width:0.8;stroke-linejoin:round;stroke-miterlimit:4;stroke-dasharray:none;stroke-opacity:1"
         d="m 115.56039,113.22203 -35.00717,35.00716 v 0.19741 a 35.009087,35.008933 0 0 0 35.00923,-35.00872 35.009087,35.008933 0 0 0 -0.002,-0.19585 z" />
      <path
         id="path5576"
         style="opacity:1;fill:#020076;fill-opacity:0.9;stroke:#aa893c;stroke-width:0.8;stroke-linejoin:round;stroke-miterlimit:4;stroke-dasharray:none;stroke-opacity:1"
         d="M 80.55322,8.3907023 A 35.009087,35.008933 0 0 0 50.234659,25.895577 35.009087,35.008933 0 0 0 45.55019,43.591138 L 80.55322,8.5886231 Z" />
      <path
         id="rect846"
         style="opacity:1;fill:#01583f;fill-opacity:1;stroke:#aa893c;stroke-width:3.02362209;stroke-linejoin:round;stroke-miterlimit:4;stroke-dasharray:none;stroke-opacity:1"
         d="M 304.45312,296.34766 V 428.66602 560.23633 L 436.74805,427.94141 a 132.31781,132.31723 0 0 0 -0.25977,-7.92969 132.31781,132.31723 0 0 0 -0.84961,-8.61719 132.31781,132.31723 0 0 0 -1.41015,-8.54297 132.31781,132.31723 0 0 0 -1.9668,-8.43164 132.31781,132.31723 0 0 0 -2.51367,-8.28711 132.31781,132.31723 0 0 0 -3.04883,-8.10351 132.31781,132.31723 0 0 0 -3.57422,-7.88672 132.31781,132.31723 0 0 0 -4.08203,-7.63672 132.31781,132.31723 0 0 0 -4.57227,-7.35156 132.31781,132.31723 0 0 0 -5.04297,-7.03907 132.31781,132.31723 0 0 0 -5.49218,-6.69335 132.31781,132.31723 0 0 0 -5.91993,-6.31836 132.31781,132.31723 0 0 0 -6.32031,-5.91993 132.31781,132.31723 0 0 0 -6.6914,-5.49218 132.31781,132.31723 0 0 0 -7.03907,-5.04297 132.31781,132.31723 0 0 0 -7.35351,-4.57227 132.31781,132.31723 0 0 0 -7.63477,-4.08203 132.31781,132.31723 0 0 0 -7.88867,-3.57422 132.31781,132.31723 0 0 0 -8.10351,-3.04883 132.31781,132.31723 0 0 0 -8.28516,-2.51367 132.31781,132.31723 0 0 0 -8.43164,-1.9668 132.31781,132.31723 0 0 0 -8.54297,-1.41015 132.31781,132.31723 0 0 0 -8.61719,-0.84961 132.31781,132.31723 0 0 0 -8.6543,-0.2832 z"
         transform="scale(0.26458333)" />
      <path
         id="path5881"
         style="opacity:1;fill:#bcb39f;fill-opacity:1;stroke:#aa893c;stroke-width:0.8;stroke-linejoin:round;stroke-miterlimit:4;stroke-dasharray:none;stroke-opacity:1"
         d="M 80.355753,78.408651 H 45.347039 10.53521 l 34.911564,34.911559 a 35.008933,35.009087 0 0 0 2.516126,0 35.008933,35.009087 0 0 0 5.174361,-0.78031 35.008933,35.009087 0 0 0 4.999694,-1.54203 35.008933,35.009087 0 0 0 4.714441,-2.27014 35.008933,35.009087 0 0 0 4.323252,-2.94762 35.008933,35.009087 0 0 0 3.835423,-3.55896 35.008933,35.009087 0 0 0 3.262334,-4.091223 35.008933,35.009087 0 0 0 2.616377,-4.531508 35.008933,35.009087 0 0 0 1.911512,-4.870502 35.008933,35.009087 0 0 0 1.16427,-5.101498 35.008933,35.009087 0 0 0 0.391189,-5.217768 z" />
      <path
         id="path5878"
         style="opacity:1;fill:#bcb39f;fill-opacity:1;stroke:#aa893c;stroke-width:3.02362209;stroke-linejoin:round;stroke-miterlimit:4;stroke-dasharray:none;stroke-opacity:1"
         d="m 436.04883,164.05664 a 132.31723,132.31781 0 0 0 -8.3086,0.28125 132.31723,132.31781 0 0 0 -8.98632,0.92578 132.31723,132.31781 0 0 0 -8.9043,1.53516 132.31723,132.31781 0 0 0 -8.77734,2.13867 132.31723,132.31781 0 0 0 -8.61329,2.73242 132.31723,132.31781 0 0 0 -8.40429,3.31446 132.31723,132.31781 0 0 0 -8.15821,3.88085 132.31723,132.31781 0 0 0 -7.87695,4.42774 132.31723,132.31781 0 0 0 -7.55469,4.95508 132.31723,132.31781 0 0 0 -7.19922,5.45898 132.31723,132.31781 0 0 0 -6.80859,5.93945 132.31723,132.31781 0 0 0 -6.38867,6.38868 132.31723,132.31781 0 0 0 -5.9375,6.80859 132.31723,132.31781 0 0 0 -5.45898,7.19922 132.31723,132.31781 0 0 0 -4.95508,7.55469 132.31723,132.31781 0 0 0 -4.42969,7.875 132.31723,132.31781 0 0 0 -3.87891,8.16015 132.31723,132.31781 0 0 0 -3.31445,8.4043 132.31723,132.31781 0 0 0 -2.73437,8.61133 132.31723,132.31781 0 0 0 -2.13868,8.77929 132.31723,132.31781 0 0 0 -1.53515,8.90235 132.31723,132.31781 0 0 0 -0.92383,8.98828 132.31723,132.31781 0 0 0 -0.3086,9.0293 H 436.76953 568.3418 Z"
         transform="scale(0.26458333)" />
      <path
         id="path5873"
         style="opacity:1;fill:#01583f;fill-opacity:1;stroke:#aa893c;stroke-width:3.02362209;stroke-linejoin:round;stroke-miterlimit:4;stroke-dasharray:none;stroke-opacity:1"
         d="m 172.16602,164.74609 a 132.31781,132.31723 0 0 0 0.47265,10.81641 132.31781,132.31723 0 0 0 1.50586,11.44531 132.31781,132.31723 0 0 0 2.5,11.26953 132.31781,132.31723 0 0 0 3.4707,11.00782 132.31781,132.31723 0 0 0 4.41797,10.66601 132.31781,132.31723 0 0 0 5.33008,10.23828 132.31781,132.31723 0 0 0 6.20117,9.73633 132.31781,132.31723 0 0 0 7.02735,9.15625 132.31781,132.31723 0 0 0 7.79882,8.51172 132.31781,132.31723 0 0 0 8.50977,7.79883 132.31781,132.31723 0 0 0 9.1582,7.02539 132.31781,132.31723 0 0 0 9.73633,6.20312 132.31781,132.31723 0 0 0 10.23828,5.33008 132.31781,132.31723 0 0 0 10.66407,4.41797 132.31781,132.31723 0 0 0 11.00976,3.4707 132.31781,132.31723 0 0 0 11.26953,2.49805 132.31781,132.31723 0 0 0 11.44336,1.50586 132.31781,132.31723 0 0 0 11.5332,0.50391 V 164.03125 32.460938 Z"
         transform="scale(0.26458333)" />
    </g>
    <g
       id="g89948"
       transform="translate(-2.2579818)">
      <path
         style="fill:none;stroke:#000000;stroke-width:0.5;stroke-linecap:butt;stroke-linejoin:miter;stroke-miterlimit:4;stroke-dasharray:none;stroke-opacity:1"
         d="m 31.043057,163.4952 v 16.82848"
         id="path89782" />
      <path
         style="fill:none;stroke:#000000;stroke-width:0.5;stroke-linecap:butt;stroke-linejoin:miter;stroke-miterlimit:4;stroke-dasharray:none;stroke-opacity:1"
         d="m 134.57935,163.4952 v 16.82848"
         id="path89864" />
    </g>
    <path
       style="fill:none;stroke:#aa893c;stroke-width:0.8;stroke-linecap:butt;stroke-linejoin:miter;stroke-miterlimit:4;stroke-dasharray:none;stroke-opacity:0.8"
       d="m 31.183005,78.538733 98.880425,0.0077"
       id="path89983" />
    <path
       style="fill:none;stroke:#aa893c;stroke-width:0.8;stroke-linecap:butt;stroke-linejoin:miter;stroke-miterlimit:4;stroke-dasharray:none;stroke-opacity:0.8"
       d="m 80.41619,29.038065 0.404918,98.880795"
       id="path89985" />
    <path
       style="fill:none;stroke:#000000;stroke-width:1.27933;stroke-linecap:butt;stroke-linejoin:miter;stroke-miterlimit:4;stroke-dasharray:none;stroke-opacity:1;marker-start:url(#marker1561)"
       d="M 129.57889,171.90944 H 87.634991"
       id="path95112" />
  </g>
</svg>
